<?xml version="1.0" encoding="utf-8"?>
<!-- Generator: Adobe Illustrator 16.0.3, SVG Export Plug-In . SVG Version: 6.00 Build 0)  -->
<!DOCTYPE svg PUBLIC "-//W3C//DTD SVG 1.1//EN" "http://www.w3.org/Graphics/SVG/1.1/DTD/svg11.dtd">
<svg version="1.1" id="Layer_1" xmlns="http://www.w3.org/2000/svg" xmlns:xlink="http://www.w3.org/1999/xlink" x="0px" y="0px"
	 width="1600px" height="1600px" viewBox="0 0 1600 1600" enable-background="new 0 0 1600 1600" xml:space="preserve">
<g>
	<g>
		<path d="M1367.612,129.192h-291.512h-88.494C965.172,51.287,894.034-3.313,811.091-3.313s-154.078,54.6-176.516,132.506h-88.494
			H254.569c-13.723,0-24.844,11.122-24.844,24.844v1417.806c0,13.725,11.125,24.844,24.844,24.844h1113.043
			c13.724,0,24.845-11.122,24.845-24.844V154.037C1392.456,140.312,1381.335,129.192,1367.612,129.192z M570.925,260.04V178.88h83.4
			c0.119,0,0.233-0.016,0.354-0.016c0.543-0.006,1.084-0.041,1.618-0.084c0.288-0.021,0.575-0.044,0.862-0.072
			c0.538-0.06,1.063-0.147,1.591-0.241c0.288-0.053,0.575-0.1,0.862-0.159c0.496-0.109,0.983-0.241,1.473-0.378
			c0.306-0.087,0.609-0.166,0.906-0.266c0.453-0.147,0.894-0.319,1.334-0.487c0.314-0.122,0.631-0.241,0.939-0.375
			c0.419-0.181,0.819-0.388,1.223-0.591c0.313-0.156,0.625-0.309,0.929-0.481c0.396-0.222,0.781-0.463,1.165-0.709
			c0.285-0.178,0.572-0.353,0.851-0.547c0.392-0.269,0.763-0.56,1.138-0.85c0.25-0.19,0.5-0.381,0.74-0.584
			c0.381-0.319,0.74-0.659,1.104-1.003c0.212-0.203,0.428-0.397,0.631-0.606c0.358-0.366,0.692-0.747,1.028-1.134
			c0.185-0.216,0.381-0.428,0.56-0.65c0.315-0.388,0.604-0.791,0.896-1.2c0.179-0.25,0.362-0.494,0.531-0.75
			c0.256-0.387,0.49-0.788,0.726-1.194c0.176-0.303,0.358-0.606,0.52-0.918c0.19-0.369,0.368-0.747,0.543-1.125
			c0.172-0.375,0.349-0.744,0.504-1.128c0.134-0.337,0.256-0.681,0.378-1.028c0.156-0.444,0.313-0.891,0.44-1.344
			c0.094-0.319,0.169-0.644,0.247-0.969c0.118-0.488,0.23-0.975,0.324-1.475c0.021-0.125,0.06-0.25,0.082-0.375
			c10.871-64.769,66.492-111.775,132.263-111.775c65.766,0,121.394,47.006,132.262,111.772c0.022,0.137,0.063,0.269,0.088,0.403
			c0.075,0.406,0.166,0.813,0.263,1.212c0.088,0.369,0.178,0.734,0.281,1.097c0.109,0.384,0.229,0.759,0.354,1.137
			c0.129,0.381,0.27,0.76,0.416,1.131c0.131,0.334,0.266,0.666,0.408,0.994c0.183,0.406,0.379,0.807,0.578,1.203
			c0.145,0.278,0.281,0.557,0.436,0.828c0.244,0.438,0.506,0.859,0.775,1.275c0.144,0.222,0.273,0.443,0.425,0.662
			c0.321,0.472,0.665,0.919,1.016,1.363c0.118,0.153,0.231,0.315,0.359,0.462c0.487,0.584,0.993,1.15,1.53,1.685
			c0.004,0.003,0.006,0.006,0.01,0.009c0.537,0.534,1.098,1.041,1.676,1.525c0.223,0.185,0.459,0.35,0.689,0.531
			c0.362,0.281,0.723,0.563,1.101,0.822c0.294,0.207,0.604,0.391,0.905,0.578c0.332,0.209,0.664,0.419,1.004,0.609
			c0.328,0.185,0.662,0.353,1,0.522c0.344,0.175,0.691,0.344,1.045,0.503c0.337,0.153,0.678,0.291,1.023,0.428
			c0.383,0.153,0.767,0.291,1.156,0.425c0.328,0.109,0.653,0.219,0.987,0.318c0.45,0.131,0.903,0.244,1.363,0.35
			c0.286,0.066,0.567,0.138,0.86,0.197c0.582,0.113,1.17,0.197,1.76,0.269c0.183,0.021,0.365,0.056,0.548,0.072
			c0.797,0.078,1.604,0.125,2.419,0.125c0.013,0,0.023-0.003,0.04-0.003h83.391v81.159v67.912H570.926L570.925,260.04
			L570.925,260.04z M546.081,377.64h530.021c13.723,0,24.844-11.122,24.844-24.844v-67.909h135.818v917.597h-226.914
			c-13.723,0-24.844,11.122-24.844,24.844v226.916H385.419V284.887h135.818v67.909C521.235,366.518,532.36,377.64,546.081,377.64z
			 M1201.625,1252.174l-166.935,166.935v-166.935H1201.625z M1342.769,1546.997H279.413V178.88h241.82v56.315H360.571
			c-13.722,0-24.844,11.122-24.844,24.844v1219.047c0,13.725,11.125,24.844,24.844,24.844h649.274c0.819,0,1.638-0.044,2.45-0.122
			c0.375-0.038,0.734-0.106,1.105-0.159c0.433-0.063,0.869-0.113,1.295-0.2c0.424-0.081,0.83-0.199,1.246-0.307
			c0.371-0.094,0.746-0.175,1.109-0.284c0.402-0.122,0.793-0.275,1.193-0.419c0.369-0.131,0.736-0.256,1.104-0.403
			c0.371-0.151,0.729-0.334,1.09-0.506c0.372-0.175,0.75-0.341,1.113-0.537c0.346-0.185,0.675-0.396,1.012-0.601
			c0.359-0.216,0.723-0.419,1.072-0.653c0.369-0.242,0.713-0.516,1.063-0.78c0.297-0.223,0.601-0.429,0.887-0.662
			c0.595-0.487,1.16-1,1.705-1.541c0.037-0.04,0.076-0.068,0.114-0.105l251.759-251.76c0.035-0.034,0.062-0.067,0.095-0.104
			c0.545-0.551,1.063-1.118,1.554-1.716c0.234-0.287,0.439-0.591,0.663-0.888c0.266-0.354,0.54-0.7,0.782-1.064
			c0.235-0.354,0.441-0.72,0.66-1.085c0.199-0.331,0.406-0.659,0.59-1c0.201-0.375,0.373-0.76,0.552-1.142
			c0.166-0.353,0.34-0.699,0.494-1.06c0.155-0.375,0.276-0.756,0.415-1.134c0.138-0.386,0.287-0.77,0.406-1.163
			c0.115-0.381,0.199-0.767,0.293-1.149c0.101-0.399,0.213-0.797,0.293-1.206c0.093-0.45,0.146-0.9,0.207-1.355
			c0.051-0.352,0.115-0.697,0.152-1.051c0.078-0.818,0.125-1.645,0.123-2.466V260.04c0-13.725-11.125-24.844-24.844-24.844h-160.66
			V178.88h241.822v1368.117H1342.769z"/>
	</g>
</g>
<g>
	<g>
		<path d="M811.091,473.706c-174.439,0-316.355,141.915-316.355,316.355s141.916,316.355,316.355,316.355
			s316.355-141.916,316.355-316.355S985.53,473.706,811.091,473.706z M811.091,1056.728c-147.041,0-266.666-119.625-266.666-266.666
			S664.05,523.396,811.091,523.396s266.666,119.625,266.666,266.666S958.132,1056.728,811.091,1056.728z"/>
	</g>
</g>
<g>
	<g>
		<path d="M961.163,659.861c-9.703-9.7-25.436-9.7-35.135,0L711.713,874.184l-61.938-61.938c-9.702-9.699-25.435-9.699-35.135,0
			c-9.703,9.706-9.703,25.436,0,35.139l79.503,79.503c4.852,4.85,11.21,7.273,17.566,7.273c6.354,0,12.719-2.425,17.565-7.273
			l231.884-231.885C970.866,685.296,970.866,669.567,961.163,659.861z"/>
	</g>
</g>
</svg>
