<?xml version="1.0" encoding="utf-8"?>
<!-- Generator: Adobe Illustrator 16.0.3, SVG Export Plug-In . SVG Version: 6.00 Build 0)  -->
<!DOCTYPE svg PUBLIC "-//W3C//DTD SVG 1.1//EN" "http://www.w3.org/Graphics/SVG/1.1/DTD/svg11.dtd">
<svg version="1.1" id="Layer_1" xmlns="http://www.w3.org/2000/svg" xmlns:xlink="http://www.w3.org/1999/xlink" x="0px" y="0px"
	 width="1600px" height="1600px" viewBox="480 0 1600 1600" enable-background="new 480 0 1600 1600" xml:space="preserve">
<g>
	<g>
		<path d="M1932.231,108.706h-626.75V93.419c0-51.513-41.909-93.419-93.419-93.419h-108.706c-51.51,0-93.419,41.906-93.419,93.419
			v15.287H858.769c-14.075,0-25.478,11.406-25.478,25.479v205.519H627.775c-14.075,0-25.479,11.406-25.479,25.479v951.149
			c0,0.847,0.044,1.694,0.128,2.538c0.034,0.344,0.101,0.675,0.147,1.016c0.068,0.484,0.125,0.969,0.222,1.449
			c0.078,0.403,0.19,0.794,0.287,1.188c0.104,0.413,0.194,0.822,0.315,1.231c0.119,0.391,0.266,0.766,0.4,1.147
			c0.144,0.402,0.278,0.809,0.44,1.206c0.15,0.356,0.322,0.7,0.484,1.05c0.19,0.403,0.369,0.813,0.581,1.209
			c0.182,0.338,0.385,0.653,0.578,0.979c0.231,0.388,0.453,0.781,0.703,1.159c0.238,0.356,0.504,0.69,0.76,1.038
			c0.24,0.321,0.466,0.652,0.725,0.965c0.497,0.601,1.022,1.179,1.569,1.734c0.04,0.041,0.075,0.088,0.115,0.129l258.175,258.175
			c0.035,0.034,0.072,0.063,0.104,0.091c0.563,0.556,1.15,1.09,1.766,1.597c0.284,0.234,0.588,0.438,0.881,0.659
			c0.375,0.278,0.738,0.568,1.125,0.828c0.348,0.234,0.71,0.435,1.063,0.65c0.356,0.212,0.707,0.438,1.075,0.634
			c0.362,0.194,0.741,0.359,1.116,0.538c0.381,0.181,0.753,0.368,1.144,0.531c0.362,0.149,0.737,0.271,1.106,0.402
			c0.415,0.15,0.821,0.31,1.243,0.435c0.375,0.112,0.75,0.194,1.128,0.288c0.429,0.109,0.854,0.228,1.288,0.313
			c0.438,0.087,0.881,0.137,1.321,0.199c0.382,0.054,0.757,0.129,1.141,0.163c0.835,0.081,1.676,0.125,2.513,0.125h747.347
			c14.075,0,25.479-11.406,25.479-25.479v-110.403h273.459c14.075,0,25.479-11.406,25.479-25.478V134.181
			C1957.709,120.112,1946.307,108.706,1932.231,108.706z M1060.894,93.419c0-23.416,19.047-42.463,42.463-42.463h108.706
			c23.416,0,42.463,19.047,42.463,42.463v15.287h-193.632V93.419L1060.894,93.419z M1060.894,390.659h125.69v125.69h-125.69V390.659
			L1060.894,390.659z M1178.013,567.303c-7.757,10.291-20.038,16.984-33.888,16.984h-40.766c-13.85,0-26.135-6.696-33.888-16.984
			H1178.013z M884.25,159.659h125.69v180.044H884.25V159.659z M860.472,1438.641v74.372l-171.188-171.188h169.487h1.7V1438.641z
			 M1607.815,1438.641v110.403H911.425v-110.403v-122.294c0-14.071-11.403-25.478-25.478-25.478h-27.176H653.253v-900.21h205.519
			h151.169v125.69H858.771h-54.353c-14.075,0-25.479,11.406-25.479,25.479s11.403,25.479,25.479,25.479h54.353H1013.5
			c11.122,39.159,47.182,67.94,89.859,67.94h40.766c42.678,0,78.737-28.778,89.859-67.94h236.256
			c14.075,0,25.479-11.406,25.479-25.479s-11.403-25.479-25.479-25.479h-232.696v-125.69h370.274v1047.981H1607.815z
			 M1906.756,1413.162h-247.984V365.182c0-14.072-11.402-25.479-25.478-25.479h-395.753V215.712
			c0-14.072-11.403-25.478-25.479-25.478s-25.479,11.406-25.479,25.478v123.991h-125.69V159.659h845.859v1253.503H1906.756z"/>
	</g>
</g>
<g>
	<g>
		<path d="M1470.237,733.76H858.771h-54.353c-14.075,0-25.479,11.406-25.479,25.478c0,14.072,11.403,25.479,25.479,25.479h54.353
			h611.466c14.075,0,25.479-11.406,25.479-25.479C1495.716,745.166,1484.313,733.76,1470.237,733.76z"/>
	</g>
</g>
<g>
	<g>
		<path d="M1470.237,951.169H858.771h-54.353c-14.075,0-25.479,11.406-25.479,25.478c0,14.072,11.403,25.479,25.479,25.479h54.353
			h611.466c14.075,0,25.479-11.406,25.479-25.479C1495.716,962.575,1484.313,951.169,1470.237,951.169z"/>
	</g>
</g>
<g>
	<g>
		<path d="M1470.237,1168.578H858.771h-54.353c-14.075,0-25.479,11.406-25.479,25.479c0,14.071,11.403,25.478,25.479,25.478h54.353
			h611.466c14.075,0,25.479-11.406,25.479-25.478C1495.716,1179.984,1484.313,1168.578,1470.237,1168.578z"/>
	</g>
</g>
</svg>
