<?xml version="1.0" encoding="utf-8"?>
<!-- Generator: Adobe Illustrator 16.0.3, SVG Export Plug-In . SVG Version: 6.00 Build 0)  -->
<!DOCTYPE svg PUBLIC "-//W3C//DTD SVG 1.1//EN" "http://www.w3.org/Graphics/SVG/1.1/DTD/svg11.dtd">
<svg version="1.1" id="Layer_1" xmlns="http://www.w3.org/2000/svg" xmlns:xlink="http://www.w3.org/1999/xlink" x="0px" y="0px"
	 width="1600px" height="1600px" viewBox="480 0 1600 1600" enable-background="new 480 0 1600 1600" xml:space="preserve">
<g>
	<path d="M2054.082,204.914H505.918c-14.317,0-25.918,11.604-25.918,25.918v1138.34c0,14.313,11.601,25.918,25.918,25.918h1548.164
		c14.317,0,25.918-11.604,25.918-25.918V230.832C2080,216.519,2068.399,204.914,2054.082,204.914z M2028.164,256.75v190.614H531.836
		V256.75H2028.164z M531.836,1343.25V499.2h1496.328v844.054H531.836V1343.25z"/>
	<path d="M989.395,587.135H685.308c-14.316,0-25.917,11.604-25.917,25.918c0,14.313,11.601,25.917,25.917,25.917h304.087
		c14.316,0,25.918-11.604,25.918-25.917C1015.313,598.738,1003.711,587.135,989.395,587.135z"/>
	<path d="M989.395,710.403H685.308c-14.316,0-25.917,11.604-25.917,25.918s11.601,25.918,25.917,25.918h304.087
		c14.316,0,25.918-11.604,25.918-25.918S1003.711,710.403,989.395,710.403z"/>
	<path d="M989.395,833.673H685.308c-14.316,0-25.917,11.604-25.917,25.918s11.601,25.918,25.917,25.918h304.087
		c14.316,0,25.918-11.604,25.918-25.918S1003.711,833.673,989.395,833.673z"/>
	<path d="M989.395,956.941H685.308c-14.316,0-25.917,11.604-25.917,25.918s11.601,25.918,25.917,25.918h304.087
		c14.316,0,25.918-11.604,25.918-25.918S1003.711,956.941,989.395,956.941z"/>
	<path d="M989.395,1080.211H685.308c-14.316,0-25.917,11.604-25.917,25.918s11.601,25.918,25.917,25.918h304.087
		c14.316,0,25.918-11.604,25.918-25.918S1003.711,1080.211,989.395,1080.211z"/>
	<path d="M989.395,1203.483H685.308c-14.316,0-25.917,11.604-25.917,25.918s11.601,25.918,25.917,25.918h304.087
		c14.316,0,25.918-11.604,25.918-25.918S1003.711,1203.483,989.395,1203.483z"/>
	<path d="M1432.041,956.941h-304.086c-14.317,0-25.918,11.604-25.918,25.918s11.601,25.918,25.918,25.918h304.086
		c14.317,0,25.918-11.604,25.918-25.918S1446.358,956.941,1432.041,956.941z"/>
	<path d="M1432.041,1080.211h-304.086c-14.317,0-25.918,11.604-25.918,25.918s11.601,25.918,25.918,25.918h304.086
		c14.317,0,25.918-11.604,25.918-25.918S1446.358,1080.211,1432.041,1080.211z"/>
	<path d="M1432.041,1203.483h-304.086c-14.317,0-25.918,11.604-25.918,25.918s11.601,25.918,25.918,25.918h304.086
		c14.317,0,25.918-11.604,25.918-25.918S1446.358,1203.483,1432.041,1203.483z"/>
	<path d="M1432.041,587.135h-304.086c-14.317,0-25.918,11.604-25.918,25.918v246.538c0,14.313,11.601,25.918,25.918,25.918h304.086
		c14.317,0,25.918-11.604,25.918-25.918V613.052C1457.959,598.738,1446.358,587.135,1432.041,587.135L1432.041,587.135z
		 M1406.123,833.673h-252.25V638.97h252.25V833.673z"/>
	<path d="M1874.691,833.673h-304.086c-14.316,0-25.918,11.604-25.918,25.918s11.602,25.918,25.918,25.918h304.086
		c14.317,0,25.918-11.604,25.918-25.918S1889.006,833.673,1874.691,833.673z"/>
	<path d="M1874.691,710.403h-304.086c-14.316,0-25.918,11.604-25.918,25.918s11.602,25.918,25.918,25.918h304.086
		c14.317,0,25.918-11.604,25.918-25.918S1889.006,710.403,1874.691,710.403z"/>
	<path d="M1874.691,587.135h-304.086c-14.316,0-25.918,11.604-25.918,25.918c0,14.313,11.602,25.917,25.918,25.917h304.086
		c14.317,0,25.918-11.604,25.918-25.917C1900.609,598.738,1889.006,587.135,1874.691,587.135z"/>
	<path d="M1874.691,956.941h-304.086c-14.316,0-25.918,11.604-25.918,25.918v246.539c0,14.313,11.602,25.917,25.918,25.917h304.086
		c14.317,0,25.918-11.604,25.918-25.917V982.859C1900.609,968.546,1889.006,956.941,1874.691,956.941z M1848.773,1203.483h-252.25
		v-194.702h252.25V1203.483z"/>
	<path d="M846.881,426.354h1102.285c14.317,0,25.918-11.604,25.918-25.918v-96.76c0-14.314-11.601-25.918-25.918-25.918H846.881
		c-14.317,0-25.918,11.604-25.918,25.918v96.76C820.963,414.749,832.563,426.354,846.881,426.354z M872.799,329.593h1050.449v44.925
		H872.799V329.593z"/>
	<path d="M591.803,377.983c6.843,0,13.512-2.765,18.354-7.603c4.804-4.838,7.564-11.508,7.564-18.315s-2.765-13.512-7.564-18.35
		c-4.838-4.804-11.508-7.568-18.354-7.568c-6.808,0-13.512,2.765-18.315,7.568c-4.838,4.838-7.603,11.508-7.603,18.35
		c0,6.808,2.765,13.512,7.603,18.315C578.326,375.219,584.995,377.983,591.803,377.983z"/>
	<path d="M675.57,377.983c6.808,0,13.512-2.765,18.314-7.603c4.838-4.838,7.603-11.508,7.603-18.315
		c0-6.842-2.765-13.512-7.603-18.35c-4.803-4.804-11.507-7.568-18.315-7.568c-6.808,0-13.477,2.765-18.315,7.568
		c-4.838,4.838-7.602,11.508-7.602,18.35c0,6.808,2.764,13.512,7.602,18.315C662.089,375.219,668.762,377.983,675.57,377.983
		L675.57,377.983z"/>
	<path d="M759.336,377.983c6.84,0,13.513-2.765,18.316-7.603c4.838-4.838,7.602-11.508,7.602-18.315
		c0-6.842-2.764-13.512-7.602-18.35c-4.804-4.804-11.474-7.568-18.316-7.568c-6.811,0-13.512,2.765-18.353,7.568
		c-4.804,4.838-7.564,11.508-7.564,18.35c0,6.808,2.765,13.478,7.564,18.315C745.824,375.219,752.525,377.983,759.336,377.983z"/>
</g>
</svg>
