<?xml version="1.0" encoding="utf-8"?>
<!-- Generator: Adobe Illustrator 16.0.3, SVG Export Plug-In . SVG Version: 6.00 Build 0)  -->
<!DOCTYPE svg PUBLIC "-//W3C//DTD SVG 1.1//EN" "http://www.w3.org/Graphics/SVG/1.1/DTD/svg11.dtd">
<svg version="1.1" id="Layer_1" xmlns="http://www.w3.org/2000/svg" xmlns:xlink="http://www.w3.org/1999/xlink" x="0px" y="0px"
	 width="1600px" height="1600px" viewBox="480 0 1600 1600" enable-background="new 480 0 1600 1600" xml:space="preserve">
<g>
	<g>
		<path d="M1837.466,975.916C1981.31,873.2,2066.525,713.325,2066.525,544c0-299.962-262.169-544-584.419-544
			c-189.719,0-366.804,85.406-476.522,229.053H518.737c-13.953,0-25.263,11.313-25.263,25.262v1064.422
			c0,13.953,11.313,25.263,25.263,25.263h190.315v230.737c0,10.159,6.085,19.328,15.444,23.275c3.169,1.337,6.503,1.987,9.813,1.987
			c6.462,0,12.825-2.479,17.634-7.169L1007.328,1344h454.568c13.957,0,25.263-11.313,25.263-25.263v-230.81
			c47.453-0.378,94.616-6.037,140.362-16.943l256.66,96.25c2.891,1.084,5.894,1.609,8.865,1.609c7.031,0,13.896-2.938,18.781-8.359
			c6.953-7.723,8.469-18.91,3.818-28.2L1837.466,975.916z M1436.631,1293.475H997.053c-6.587,0-12.915,2.575-17.631,7.169
			l-219.844,214.21V1318.74c0-13.953-11.313-25.262-25.263-25.262H544v-1013.9h427.313
			c-30.625,51.325-52.294,107.391-63.784,165.053H707.369c-13.953,0-25.263,11.313-25.263,25.263v80.841
			c0,13.953,11.313,25.263,25.263,25.263h191.359c2.934,47.247,12.353,93.487,28.134,138.106H707.369
			c-13.953,0-25.263,11.313-25.263,25.262v80.841c0,13.953,11.313,25.263,25.263,25.263h288.303
			c38.44,53.659,86.553,100.375,142.088,138.106H707.369c-13.953,0-25.263,11.313-25.263,25.263v80.844
			c0,13.953,11.313,25.262,25.263,25.262h565.894c13.956,0,25.263-11.313,25.263-25.262v-29.109
			c44.665,13.75,90.906,22.381,138.105,25.756V1293.475L1436.631,1293.475z M900.138,495.159
			c-0.976,10.104-1.722,20.216-2.091,30.315H732.631v-30.315H900.138z M947.828,764.631c4.888,10.244,10.115,20.359,15.685,30.316
			H732.631v-30.316H947.828z M1228.325,1034.106c6.5,2.922,13.065,5.734,19.675,8.428v21.888H732.631v-30.315H1228.325z
			 M1637.956,1020.935c-4.818-1.807-10.06-2.094-15.05-0.841c-45.744,11.534-93.112,17.381-140.8,17.381
			c-5.807,0-11.963-0.115-19.375-0.359h-0.003c-62.395-2.053-123.16-13.99-180.619-35.465c-12.706-4.75-25.422-10.047-37.797-15.75
			c-87.994-40.544-162.197-102.713-214.594-179.801c-0.006-0.009-0.016-0.024-0.025-0.034c-0.009-0.016-0.024-0.034-0.034-0.047
			c0-0.003-0.003-0.003-0.003-0.006c-16.469-24.241-30.719-49.963-42.369-76.466c-0.003-0.006-0.006-0.016-0.009-0.025
			c-0.041-0.094-0.088-0.188-0.128-0.284c-0.004-0.003-0.004-0.009-0.004-0.013c-24.922-56.824-37.993-116.99-38.841-178.834
			c0,0,0,0,0-0.003v-0.003l-0.04-2.31c-0.025-1.356-0.05-2.716-0.05-4.075c0-23.338,1.818-46.972,5.409-70.253v-0.003
			c11.381-73.81,39.984-142.635,85.012-204.576c99.528-136.903,265.307-218.64,443.469-218.64
			C1776.497,50.528,2016,271.9,2016,544.003c0,159.422-84.057,309.856-224.854,402.416c-10.697,7.034-14.443,20.959-8.719,32.406
			l59.254,118.513L1637.956,1020.935z"/>
	</g>
</g>
<g>
	<g>
		<path d="M1479.271,436.638c-54.794,0-99.368,44.578-99.368,99.369s44.574,99.369,99.368,99.369s99.369-44.578,99.369-99.369
			C1578.637,481.216,1534.064,436.638,1479.271,436.638z M1479.271,584.848c-26.931,0-48.841-21.913-48.841-48.841
			c0-26.932,21.913-48.844,48.841-48.844c26.932,0,48.841,21.912,48.841,48.844C1528.111,562.935,1506.199,584.848,1479.271,584.848
			z"/>
	</g>
</g>
<g>
	<g>
		<path d="M1748.742,436.638c-54.793,0-99.368,44.578-99.368,99.369s44.575,99.369,99.368,99.369
			c54.794,0,99.369-44.578,99.369-99.369S1803.536,436.638,1748.742,436.638z M1748.742,584.848
			c-26.931,0-48.84-21.913-48.84-48.841c0-26.932,21.912-48.844,48.84-48.844c26.929,0,48.841,21.912,48.841,48.844
			C1797.586,562.935,1775.674,584.848,1748.742,584.848z"/>
	</g>
</g>
<g>
	<g>
		<path d="M1209.796,436.638c-54.791,0-99.369,44.578-99.369,99.369s44.578,99.369,99.369,99.369
			c54.79,0,99.368-44.578,99.368-99.369S1264.586,436.638,1209.796,436.638z M1209.796,584.848
			c-26.932,0-48.844-21.913-48.844-48.841c0-26.932,21.912-48.844,48.844-48.844c26.931,0,48.841,21.912,48.841,48.844
			C1258.637,562.935,1236.727,584.848,1209.796,584.848z"/>
	</g>
</g>
</svg>
