<?xml version="1.0" encoding="utf-8"?>
<!-- Generator: Adobe Illustrator 16.0.3, SVG Export Plug-In . SVG Version: 6.00 Build 0)  -->
<!DOCTYPE svg PUBLIC "-//W3C//DTD SVG 1.1//EN" "http://www.w3.org/Graphics/SVG/1.1/DTD/svg11.dtd">
<svg version="1.1" id="Layer_1" xmlns="http://www.w3.org/2000/svg" xmlns:xlink="http://www.w3.org/1999/xlink" x="0px" y="0px"
	 width="1659.166px" height="1281.128px" viewBox="454.237 154.255 1659.166 1281.128"
	 enable-background="new 454.237 154.255 1659.166 1281.128" xml:space="preserve">
<path fill="#4B69E2" d="M498.462,861.538C486.154,849.23,480,830.77,480,818.462s6.154-30.77,18.462-43.077l86.153-86.154
	c24.615-24.615,61.539-24.615,86.154,0l6.153,6.154l338.462,363.077c12.308,12.308,30.77,12.308,43.076,0l824.615-855.385h6.154l0,0
	c24.615-24.616,61.539-24.616,86.154,0l86.153,86.154c24.616,24.615,24.616,61.539,0,86.154l0,0l-984.615,1021.538
	c-12.308,12.308-24.615,18.462-43.077,18.462c-18.461,0-30.769-6.154-43.076-18.462L510.77,880L498.462,861.538L498.462,861.538z"/>
</svg>
