<?xml version="1.0" encoding="utf-8"?>
<!-- Generator: Adobe Illustrator 16.0.3, SVG Export Plug-In . SVG Version: 6.00 Build 0)  -->
<!DOCTYPE svg PUBLIC "-//W3C//DTD SVG 1.1//EN" "http://www.w3.org/Graphics/SVG/1.1/DTD/svg11.dtd">
<svg version="1.1" id="Layer_1" xmlns="http://www.w3.org/2000/svg" xmlns:xlink="http://www.w3.org/1999/xlink" x="0px" y="0px"
	 width="1600px" height="1600px" viewBox="480 0 1600 1600" enable-background="new 480 0 1600 1600" xml:space="preserve">
<g>
	<g>
		<path d="M1986.443,285.063V76.603c0-42.241-34.362-76.603-76.603-76.603H650.159c-42.24,0-76.603,34.362-76.603,76.603v208.459
			c0,33.291,21.35,61.669,51.068,72.209v59.854c-29.719,10.541-51.068,38.922-51.068,72.209v208.46
			c0,33.29,21.35,61.669,51.068,72.209v59.919c-29.719,10.541-51.068,38.922-51.068,72.209v208.46
			c0,33.29,21.35,61.669,51.068,72.209v59.919c-29.719,10.541-51.068,38.922-51.068,72.209v208.46
			c0,42.24,34.362,76.603,76.603,76.603h1259.682c42.24,0,76.603-34.362,76.603-76.603v-208.45c0-33.291-21.35-61.669-51.068-72.209
			v-59.919c29.719-10.541,51.068-38.922,51.068-72.21V902.141c0-33.291-21.35-61.669-51.068-72.209v-59.919
			c29.719-10.541,51.068-38.922,51.068-72.21V489.344c0-33.291-21.35-61.669-51.068-72.209v-59.854
			C1965.094,346.731,1986.443,318.354,1986.443,285.063z M1935.375,1523.396c0,14.082-11.453,25.535-25.534,25.535H650.159
			c-14.081,0-25.534-11.453-25.534-25.535v-208.459c0-14.081,11.453-25.534,25.534-25.534h1259.682
			c14.081,0,25.534,11.453,25.534,25.534V1523.396z M675.693,1238.334v-51.137h1208.613v51.137H675.693z M1935.375,1110.597
			c0,14.081-11.453,25.534-25.534,25.534H650.159c-14.081,0-25.534-11.453-25.534-25.534V902.138
			c0-14.081,11.453-25.534,25.534-25.534h1259.682c14.081,0,25.534,11.453,25.534,25.534V1110.597z M1935.375,697.797
			c0,14.081-11.453,25.534-25.534,25.534h-102.138c-14.104,0-25.534,11.432-25.534,25.534c0,14.104,11.431,25.535,25.534,25.535
			h76.604v51.137H675.693V774.4h1133.875c14.104,0,25.535-11.432,25.535-25.535c0-14.103-11.432-25.534-25.535-25.534H650.159
			c-14.081,0-25.534-11.453-25.534-25.534V489.338c0-14.082,11.453-25.535,25.534-25.535h1259.682
			c14.081,0,25.534,11.453,25.534,25.535V697.797z M675.693,412.734v-51.068h1208.613v51.068H675.693z M1909.841,310.597H650.159
			c-14.081,0-25.534-11.453-25.534-25.534V76.603c0-14.081,11.453-25.534,25.534-25.534h1259.682
			c14.081,0,25.534,11.453,25.534,25.534v208.459C1935.375,299.144,1923.922,310.597,1909.841,310.597z"/>
	</g>
</g>
<g>
	<g>
		<path d="M1280,102.138H854.432c-14.104,0-25.535,11.431-25.535,25.534s11.432,25.534,25.535,25.534H1280
			c14.1,0,25.534-11.431,25.534-25.534S1294.1,102.138,1280,102.138z"/>
	</g>
</g>
<g>
	<g>
		<path d="M752.297,102.138h-51.068c-14.104,0-25.535,11.431-25.535,25.534s11.432,25.534,25.535,25.534h51.068
			c14.104,0,25.534-11.431,25.534-25.534S766.396,102.138,752.297,102.138z"/>
	</g>
</g>
<g>
	<g>
		<path d="M1280,514.869H854.432c-14.104,0-25.535,11.431-25.535,25.534c0,14.103,11.432,25.534,25.535,25.534H1280
			c14.1,0,25.534-11.432,25.534-25.534C1305.534,526.3,1294.1,514.869,1280,514.869z"/>
	</g>
</g>
<g>
	<g>
		<path d="M752.297,514.869h-51.068c-14.104,0-25.535,11.431-25.535,25.534c0,14.103,11.432,25.534,25.535,25.534h51.068
			c14.104,0,25.534-11.432,25.534-25.534C777.831,526.3,766.396,514.869,752.297,514.869z"/>
	</g>
</g>
<g>
	<g>
		<path d="M1280,927.672H854.432c-14.104,0-25.535,11.432-25.535,25.534c0,14.104,11.432,25.534,25.535,25.534H1280
			c14.1,0,25.534-11.431,25.534-25.534C1305.534,939.104,1294.1,927.672,1280,927.672z"/>
	</g>
</g>
<g>
	<g>
		<path d="M752.297,927.672h-51.068c-14.104,0-25.535,11.432-25.535,25.534c0,14.104,11.432,25.534,25.535,25.534h51.068
			c14.104,0,25.534-11.431,25.534-25.534C777.831,939.104,766.396,927.672,752.297,927.672z"/>
	</g>
</g>
<g>
	<g>
		<path d="M1280,1340.472H854.432c-14.104,0-25.535,11.432-25.535,25.534c0,14.104,11.432,25.535,25.535,25.535H1280
			c14.1,0,25.534-11.432,25.534-25.535C1305.534,1351.903,1294.1,1340.472,1280,1340.472z"/>
	</g>
</g>
<g>
	<g>
		<path d="M752.297,1340.472h-51.068c-14.104,0-25.535,11.432-25.535,25.534c0,14.104,11.432,25.535,25.535,25.535h51.068
			c14.104,0,25.534-11.432,25.534-25.535C777.831,1351.903,766.396,1340.472,752.297,1340.472z"/>
	</g>
</g>
</svg>
