<?xml version="1.0" encoding="utf-8"?>
<!-- Generator: Adobe Illustrator 16.0.3, SVG Export Plug-In . SVG Version: 6.00 Build 0)  -->
<!DOCTYPE svg PUBLIC "-//W3C//DTD SVG 1.1//EN" "http://www.w3.org/Graphics/SVG/1.1/DTD/svg11.dtd">
<svg version="1.1" id="Layer_1" xmlns="http://www.w3.org/2000/svg" xmlns:xlink="http://www.w3.org/1999/xlink" x="0px" y="0px"
	 width="1600px" height="1600px" viewBox="480 0 1600 1600" enable-background="new 480 0 1600 1600" xml:space="preserve">
<g>
	<g>
		<path d="M1982.597,1033.328c-79.978-79.975-196.013-113.55-306.034-89.447l-107.878-107.878l329.556-329.56
			c0.035-0.034,144.31-144.309,144.31-144.309c24.01-24.01,37.231-56.044,37.231-90.191c0-34.153-13.225-66.185-37.231-90.194
			L1898.263,37.459c-24.013-24.009-56.047-37.234-90.194-37.234c-34.152,0-66.184,13.222-90.199,37.237l-473.863,473.86
			l-107.878-107.879c24.109-110.012-9.469-226.056-89.446-306.031C956.994,7.725,826.519-22.878,706.175,17.547
			c-8.375,2.815-14.7,9.759-16.722,18.359c-2.021,8.603,0.55,17.638,6.8,23.884l175.659,175.66l-32.621,123.818l-123.828,32.578
			L539.807,216.194c-6.25-6.25-15.285-8.822-23.882-6.8c-8.6,2.019-15.547,8.341-18.365,16.716
			c-40.456,120.365-9.859,250.862,79.847,340.568c79.979,79.976,196.021,113.554,306.031,89.447l108.734,109.731
			c4.981,4.981,11.516,7.478,18.047,7.478s13.065-2.49,18.047-7.478c9.969-9.969,9.969-26.132,0-36.097L909.4,609.894
			c-6.438-6.443-15.819-8.966-24.635-6.612c-96.662,25.81-200.606-2.044-271.263-72.7c-65.672-65.672-93.899-157.188-78.146-246.644
			L689.729,438.31c6.418,6.419,15.766,8.943,24.54,6.638l152.4-40.094c8.896-2.341,15.847-9.288,18.188-18.185L923.25,240.94
			l97.097-97.097c63.385,70.222,87.51,168.859,62.929,260.925c-2.354,8.804,0.168,18.19,6.612,24.635L1207.9,547.416
			l-575.913,575.925c-0.675,0.675-1.294,1.381-1.878,2.109c-0.146,0.185-0.275,0.381-0.419,0.568
			c-0.428,0.569-0.841,1.144-1.219,1.734c-0.144,0.226-0.271,0.456-0.406,0.688c-0.347,0.585-0.672,1.179-0.962,1.784
			c-0.119,0.25-0.234,0.497-0.348,0.75c-0.274,0.619-0.527,1.25-0.753,1.885c-0.053,0.156-0.131,0.307-0.185,0.463l-144.29,432.865
			c-3.057,9.172-0.672,19.284,6.165,26.122c4.866,4.865,11.388,7.478,18.051,7.478c2.699,0,5.425-0.428,8.068-1.309l432.875-144.291
			c0.159-0.053,0.31-0.131,0.469-0.188c0.635-0.225,1.256-0.472,1.872-0.75c0.256-0.112,0.503-0.229,0.756-0.35
			c0.604-0.294,1.194-0.616,1.775-0.96c0.231-0.138,0.462-0.266,0.69-0.409c0.591-0.375,1.169-0.787,1.731-1.216
			c0.19-0.144,0.388-0.271,0.571-0.422c0.729-0.581,1.438-1.206,2.109-1.878l575.926-575.922L1650.6,990.106
			c6.453,6.446,15.841,8.966,24.635,6.612c96.672-25.807,200.609,2.047,271.263,72.7c65.649,65.653,93.884,157.141,78.156,246.575
			l-154.369-154.372c-6.422-6.422-15.778-8.947-24.556-6.635l-152.397,40.15c-8.894,2.341-15.841,9.29-18.181,18.188
			l-38.338,145.725l-97.135,97.135c-63.402-70.226-87.54-168.872-62.956-260.95c2.347-8.803-0.169-18.19-6.609-24.635
			l-119.872-119.868c-9.972-9.969-26.131-9.969-36.1,0s-9.969,26.131,0,36.097l109.734,109.734
			c-24.109,110.013,9.469,226.06,89.443,306.031c2.091,2.091,4.2,4.138,6.335,6.162c0.528,0.641,1.084,1.263,1.685,1.863
			c1.016,1.016,2.103,1.896,3.234,2.703c62.021,56.6,141.256,86.678,222.612,86.675c35.581,0,71.581-5.757,106.709-17.563
			c8.375-2.815,14.697-9.76,16.716-18.366c2.019-8.6-0.553-17.637-6.8-23.881l-175.656-175.656l32.578-123.828l123.825-32.622
			l175.656,175.659c6.253,6.25,15.3,8.828,23.887,6.801c8.601-2.022,15.547-8.344,18.363-16.726
			C2102.881,1253.487,2072.281,1123.013,1982.597,1033.328z M900.328,191.678L764.006,55.35
			c77.453-13.625,156.426,5.747,218.838,53.813L900.328,191.678z M1753.969,73.553c14.369-14.369,33.581-22.281,54.1-22.281
			c20.513,0,39.729,7.913,54.098,22.281l144.287,144.291c29.831,29.831,29.831,78.366,0,108.193l-126.24,126.241l-252.484-252.484
			L1753.969,73.553z M546.104,1533.903l42.943-128.825l85.885,85.885L546.104,1533.903z M729.078,1472.912l-121.984-121.98
			l54.097-162.291l230.175,230.175L729.078,1472.912z M938.615,1393.875l-252.487-252.487l809.304-809.3l108.196,108.19
			l-755.206,755.209c-9.969,9.969-9.969,26.132,0,36.097c4.981,4.981,11.516,7.479,18.047,7.479s13.065-2.49,18.047-7.479
			l755.203-755.199L1748.733,584.5c4.984,4.98,11.522,7.478,18.05,7.478c6.531,0,13.066-2.49,18.051-7.478
			c9.969-9.969,9.969-26.132,0-36.098L1657.775,422.24c-0.01-0.009-126.25-126.25-126.25-126.25l60.097-60.097l252.484,252.484
			L938.615,1393.875z M1796.068,1544.65c-77.453,13.631-156.44-5.719-218.871-53.778l82.543-82.544L1796.068,1544.65z"/>
	</g>
</g>
</svg>
