<?xml version="1.0" encoding="utf-8"?>
<!-- Generator: Adobe Illustrator 16.0.3, SVG Export Plug-In . SVG Version: 6.00 Build 0)  -->
<!DOCTYPE svg PUBLIC "-//W3C//DTD SVG 1.1//EN" "http://www.w3.org/Graphics/SVG/1.1/DTD/svg11.dtd">
<svg version="1.1" id="Layer_1" xmlns="http://www.w3.org/2000/svg" xmlns:xlink="http://www.w3.org/1999/xlink" x="0px" y="0px"
	 width="1600px" height="1600px" viewBox="480 0 1600 1600" enable-background="new 480 0 1600 1600" xml:space="preserve">
<g>
	<g>
		<path d="M1762.95,670.225h-8.213V458.315c0-122.734-48.056-238.106-135.318-324.872C1532.803,47.325,1418.2,0,1296.447,0
			c-0.897,0-1.801,0.003-2.7,0.006C1042.503,1.45,838.104,209.188,838.104,463.088v69.503c0,13.609,11.031,24.641,24.641,24.641
			h131.415c13.609,0,24.641-11.031,24.641-24.641v-70.422c0-153.729,123.31-279.991,274.875-281.459
			c74.632-0.584,144.878,27.844,197.987,80.44c53.119,52.61,82.375,122.628,82.375,197.166v211.909H829.891
			c-67.938,0-123.203,55.27-123.203,123.203v781.932c0,13.609,11.031,24.641,24.641,24.641h1130.185
			c13.609,0,24.641-11.031,24.641-24.641V793.428C1886.153,725.494,1830.888,670.225,1762.95,670.225z M1526.341,226.134
			c-62.528-61.925-145.325-95.653-233.141-94.703c-178.479,1.731-323.679,150.097-323.679,330.738v45.781h-82.134v-44.862
			c0-226.882,182.419-412.51,406.644-413.8c0.81-0.003,1.6-0.006,2.409-0.006c108.641,0,210.929,42.247,288.234,119.109
			c77.888,77.444,120.784,180.409,120.784,289.925v211.909h-82.134V458.315C1623.318,370.525,1588.878,288.069,1526.341,226.134z
			 M1836.872,1550.719H755.969V793.428c0-40.762,33.159-73.922,73.922-73.922h768.865h131.341h32.854
			c40.763,0,73.922,33.16,73.922,73.922V1550.719z"/>
	</g>
</g>
<g>
	<g>
		<path d="M1340.932,1094.635c71.762-19.598,124.688-85.325,124.688-163.216c0-93.297-75.903-169.2-169.2-169.2
			s-169.2,75.903-169.2,169.2c0,77.891,52.925,143.618,124.688,163.216c-122.881,21.196-216.682,128.475-216.682,257.318v131.416
			c0,13.609,11.031,24.641,24.641,24.641h473.101c13.609,0,24.641-11.031,24.641-24.641v-131.416
			C1557.612,1223.109,1463.813,1115.831,1340.932,1094.635z M1176.503,931.416c0-66.122,53.797-119.919,119.919-119.919
			s119.919,53.797,119.919,119.919c0,66.121-53.797,119.918-119.919,119.918S1176.503,997.541,1176.503,931.416z M1508.331,1458.729
			h-423.818v-106.775c0-116.847,95.063-211.909,211.909-211.909s211.909,95.063,211.909,211.909V1458.729z"/>
	</g>
</g>
</svg>
