<?xml version="1.0" encoding="utf-8"?>
<!-- Generator: Adobe Illustrator 16.0.3, SVG Export Plug-In . SVG Version: 6.00 Build 0)  -->
<!DOCTYPE svg PUBLIC "-//W3C//DTD SVG 1.1//EN" "http://www.w3.org/Graphics/SVG/1.1/DTD/svg11.dtd">
<svg version="1.1" id="Layer_1" xmlns="http://www.w3.org/2000/svg" xmlns:xlink="http://www.w3.org/1999/xlink" x="0px" y="0px"
	 width="1600px" height="1600px" viewBox="480 0 1600 1600" enable-background="new 480 0 1600 1600" xml:space="preserve">
<g>
	<g>
		<path d="M1977.872,215.337v-79.168c0-14.104-11.429-25.531-25.531-25.531h-570.213c-41.712,0-78.815,20.109-102.128,51.141
			c-23.313-31.035-60.416-51.141-102.128-51.141H607.659c-14.103,0-25.531,11.428-25.531,25.531v79.166
			C523.928,227.197,480,278.775,480,340.425v885.106c0,70.394,57.266,127.659,127.659,127.659h547.247
			c11.859,58.2,63.443,102.128,125.094,102.128c61.646,0,113.231-43.928,125.097-102.128h264.385
			c14.103,0,25.531-11.428,25.531-25.531c0-14.103-11.429-25.531-25.531-25.531h-287.354c-14.103,0-25.531,11.429-25.531,25.531
			c0,42.234-34.362,76.597-76.597,76.597s-76.597-34.362-76.597-76.597c0-14.103-11.429-25.531-25.531-25.531H607.659
			c-42.234,0-76.597-34.362-76.597-76.597V340.425c0-33.284,21.347-61.666,51.063-72.203v855.185
			c0,14.104,11.428,25.531,25.531,25.531h570.213c42.234,0,76.597,34.362,76.597,76.597c-21.351-16-47.882-25.531-76.597-25.531
			h-650.21c-14.103,0-25.531,11.429-25.531,25.531c0,14.104,11.429,25.531,25.531,25.531h650.213
			c42.234,0,76.597,34.362,76.597,76.597c0,14.104,11.428,25.531,25.531,25.531s25.531-11.428,25.531-25.531
			c0-42.234,34.362-76.597,76.597-76.597h287.354c14.103,0,25.531-11.428,25.531-25.531c0-14.103-11.429-25.531-25.531-25.531
			h-287.354c-28.716,0-55.243,9.531-76.597,25.597c0-42.297,34.362-76.659,76.597-76.659h280.95v314.894
			c0,8.557,4.287,16.538,11.416,21.272c7.118,4.728,16.144,5.575,24.034,2.256l70.888-29.865l70.887,29.865
			c3.188,1.341,6.557,2.003,9.91,2.003c4.953,0,9.875-1.44,14.121-4.259c7.129-4.734,11.416-12.719,11.416-21.272v-110.637h76.597
			c70.394,0,127.659-57.267,127.659-127.66V340.425C2080,278.775,2036.072,227.197,1977.872,215.337z M1254.469,1123.469
			c-21.35-16.065-47.881-25.597-76.597-25.597H633.19V161.703h544.682c42.234,0,76.597,34.362,76.597,76.597V1123.469z
			 M1824.682,1425.369l-45.356-19.113c-6.341-2.665-13.484-2.665-19.825,0l-45.356,19.113v-276.432h110.538V1425.369z
			 M1382.128,1097.872c-28.716,0-55.243,9.531-76.597,25.597V238.297c0-42.234,34.362-76.597,76.597-76.597h544.682v936.169
			h-544.682V1097.872z M2028.938,1225.531c0,42.234-34.362,76.597-76.597,76.597h-76.597v-51.063h156.597
			c14.103,0,25.531-11.428,25.531-25.531c0-14.103-11.429-25.531-25.531-25.531h-156.597v-51.063h76.597
			c14.103,0,25.531-11.428,25.531-25.531V268.222c29.716,10.541,51.063,38.922,51.063,72.203v885.106H2028.938z"/>
	</g>
</g>
<g>
	<g>
		<path d="M1143.831,893.615h-400c-14.103,0-25.531,11.429-25.531,25.531c0,14.104,11.429,25.531,25.531,25.531h400
			c14.104,0,25.531-11.428,25.531-25.531C1169.362,905.044,1157.935,893.615,1143.831,893.615z"/>
	</g>
</g>
<g>
	<g>
		<path d="M1143.831,748.938h-400c-14.103,0-25.531,11.428-25.531,25.531S729.729,800,743.831,800h400
			c14.104,0,25.531-11.428,25.531-25.531S1157.935,748.938,1143.831,748.938z"/>
	</g>
</g>
<g>
	<g>
		<path d="M1143.831,604.256h-400c-14.103,0-25.531,11.429-25.531,25.531c0,14.104,11.429,25.531,25.531,25.531h400
			c14.104,0,25.531-11.428,25.531-25.531C1169.362,615.685,1157.935,604.256,1143.831,604.256z"/>
	</g>
</g>
<g>
	<g>
		<path d="M1143.831,459.575h-400c-14.103,0-25.531,11.428-25.531,25.531c0,14.103,11.429,25.531,25.531,25.531h400
			c14.104,0,25.531-11.429,25.531-25.531C1169.362,471.003,1157.935,459.575,1143.831,459.575z"/>
	</g>
</g>
<g>
	<g>
		<path d="M1143.831,314.894h-400c-14.103,0-25.531,11.429-25.531,25.531c0,14.104,11.429,25.531,25.531,25.531h400
			c14.104,0,25.531-11.428,25.531-25.531C1169.362,326.322,1157.935,314.894,1143.831,314.894z"/>
	</g>
</g>
<g>
	<g>
		<path d="M1816.169,893.615h-400c-14.104,0-25.531,11.429-25.531,25.531c0,14.104,11.428,25.531,25.531,25.531h400
			c14.103,0,25.531-11.428,25.531-25.531C1841.703,905.044,1830.275,893.615,1816.169,893.615z"/>
	</g>
</g>
<g>
	<g>
		<path d="M1816.169,638.916c14.103,0,25.531-11.429,25.531-25.531V340.428c0-14.103-11.429-25.531-25.531-25.531h-400
			c-14.104,0-25.531,11.429-25.531,25.531v434.041c0,14.104,11.428,25.531,25.531,25.531h400c14.103,0,25.531-11.428,25.531-25.531
			V608.513c0-14.104-11.429-25.531-25.531-25.531c-14.104,0-25.531,11.428-25.531,25.531v140.425H1441.7V365.956h348.938v247.425
			C1790.638,627.487,1802.065,638.916,1816.169,638.916z"/>
	</g>
</g>
</svg>
