<?xml version="1.0" encoding="utf-8"?>
<!-- Generator: Adobe Illustrator 16.0.3, SVG Export Plug-In . SVG Version: 6.00 Build 0)  -->
<!DOCTYPE svg PUBLIC "-//W3C//DTD SVG 1.1//EN" "http://www.w3.org/Graphics/SVG/1.1/DTD/svg11.dtd">
<svg version="1.1" id="Layer_1" xmlns="http://www.w3.org/2000/svg" xmlns:xlink="http://www.w3.org/1999/xlink" x="0px" y="0px"
	 width="1600px" height="1600px" viewBox="480 0 1600 1600" enable-background="new 480 0 1600 1600" xml:space="preserve">
<g>
	<g>
		<path d="M1894.612,534.447c-13.834,0-25.053,11.212-25.053,25.053s11.216,25.053,25.053,25.053
			c74.594,0,135.281,60.688,135.281,135.281c0,66.138-47.719,121.304-110.528,132.973
			c-7.384-191.528-165.475-345.078-358.784-345.078h-429.665L924.612,275.638c-6.906-7.775-17.903-10.469-27.628-6.775
			c-9.725,3.697-16.15,13.013-16.15,23.416v221.384C713.825,544.394,586.888,691.05,586.888,866.81v27.769l-85.956,14.328
			C488.856,910.916,480,921.365,480,933.612v213.778c0,12.247,8.854,22.697,20.935,24.709l95.091,15.851
			c35.006,152.628,166.262,265.306,322.324,277.281l16.182,113.259c1.763,12.344,12.331,21.513,24.803,21.513h160.335
			c12.466,0,23.037-9.165,24.803-21.513l16.013-112.1h239.037l16.013,112.1c1.763,12.344,12.331,21.513,24.804,21.513h160.334
			c12.466,0,23.037-9.165,24.803-21.513l17.372-121.615c161.456-37.731,276.822-181.906,276.822-349.565V903.481
			C2010.078,891.206,2080,813.557,2080,719.834C2080,617.612,1996.838,534.447,1894.612,534.447z M530.104,1126.169V954.831
			l56.784-9.462v161.938c0,9.516,0.431,19.037,1.178,28.521L530.104,1126.169z M930.94,358.169l132.94,149.556H945.972H930.94
			V358.169z M1097.938,1549.896H981.06l-11.929-83.506h140.738L1097.938,1549.896z M1578.94,1549.896h-116.878l-11.932-83.506
			h110.453c10.163,0,20.338-0.469,30.476-1.322L1578.94,1549.896z M1869.563,880.166v227.141
			c0,149.537-106.615,277.391-253.506,304.006c-18.207,3.297-36.872,4.972-55.473,4.972h-139.337h-282.491H945.972
			c-1.497,0-2.99-0.028-4.475-0.053l-0.831-0.016h-0.004c-0.003,0-0.003,0-0.003,0c-147.459-2.484-273.162-109.531-298.894-254.528
			c-3.166-17.834-4.769-36.128-4.769-54.381v-191.51v-48.99c0-170.372,138.605-308.979,308.978-308.979h173.694h440.919
			c170.371,0,308.978,138.606,308.978,308.979v13.359H1869.563z"/>
	</g>
</g>
<g>
	<g>
		<path d="M825.722,774.947c-58.019,0-105.219,47.203-105.219,105.219s47.203,105.219,105.219,105.219
			S930.94,938.182,930.94,880.166S883.737,774.947,825.722,774.947z M825.722,935.281c-30.391,0-55.115-24.725-55.115-55.115
			s24.725-55.116,55.115-55.116s55.116,24.726,55.116,55.116S856.109,935.281,825.722,935.281z"/>
	</g>
</g>
<g>
	<g>
		<path d="M1520.5,668.06h-454.281c-13.834,0-25.053,11.212-25.053,25.053v133.612c0,13.838,11.215,25.054,25.053,25.054H1520.5
			c13.834,0,25.053-11.213,25.053-25.054V693.112C1545.553,679.271,1534.338,668.06,1520.5,668.06z M1495.45,801.669h-404.175
			v-83.507h404.175V801.669z"/>
	</g>
</g>
<path d="M1306.722,0c-131.69,0-238.831,107.141-238.831,238.831s107.141,238.831,238.831,238.831s238.831-107.141,238.831-238.831
	S1438.412,0,1306.722,0z M1334,425.521v0.323h-52.331v0.006c-0.014-0.002-0.026-0.004-0.04-0.006h-2.185v-0.317
	c-91.176-13.267-161.45-91.895-161.45-186.689c0-94.794,70.274-173.425,161.45-186.689v-0.323h52.331v-0.006
	c0.015,0.002,0.029,0.004,0.044,0.006H1334v0.316c91.175,13.267,161.45,91.895,161.45,186.689S1425.175,412.254,1334,425.521z"/>
</svg>
