<?xml version="1.0" encoding="utf-8"?>
<!-- Generator: Adobe Illustrator 16.0.3, SVG Export Plug-In . SVG Version: 6.00 Build 0)  -->
<!DOCTYPE svg PUBLIC "-//W3C//DTD SVG 1.1//EN" "http://www.w3.org/Graphics/SVG/1.1/DTD/svg11.dtd">
<svg version="1.1" id="Layer_1" xmlns="http://www.w3.org/2000/svg" xmlns:xlink="http://www.w3.org/1999/xlink" x="0px" y="0px"
	 width="1600px" height="1600px" viewBox="480 0 1600 1600" enable-background="new 480 0 1600 1600" xml:space="preserve">
<g>
	<g>
		<path d="M1817.993,491.92l-298.532-216.77c-11.04-8.016-26.487-5.565-34.509,5.475c-8.019,11.041-5.563,26.491,5.478,34.509
			l298.535,216.767c4.385,3.181,9.46,4.716,14.494,4.716c7.638,0,15.175-3.535,20.013-10.191
			C1831.49,515.386,1829.037,499.936,1817.993,491.92z"/>
	</g>
</g>
<g>
	<g>
		<path d="M1082.68,373.348c-2.138-13.475-14.797-22.682-28.272-20.528l-364.369,57.822c-13.476,2.138-22.666,14.797-20.528,28.271
			c1.932,12.166,12.432,20.838,24.369,20.838c1.287,0,2.594-0.101,3.902-0.31l364.373-57.822
			C1075.633,399.482,1084.823,386.826,1082.68,373.348z"/>
	</g>
</g>
<g>
	<g>
		<path d="M2069.807,414.229L1515.383,11.659c-5.3-3.847-11.906-5.44-18.387-4.406c-6.469,1.028-12.27,4.582-16.122,9.881
			l-241.785,332.995l-33.29-209.779c-1.025-6.472-4.582-12.269-9.885-16.122c-5.303-3.854-11.922-5.432-18.388-4.406
			L500.838,227.207c-13.476,2.138-22.666,14.797-20.528,28.269l132.159,832.854c1.028,6.473,4.582,12.27,9.882,16.122
			c4.247,3.085,9.331,4.713,14.516,4.713c1.287,0,2.581-0.104,3.872-0.307l155.49-24.675v265.082
			c0,13.644,11.063,24.706,24.707,24.706h685.16c13.646,0,24.707-11.063,24.707-24.706V1279.6
			c16.949-9.734,32.959-20.972,47.824-33.685l61.56,61.563l-19.797,19.797c-9.646,9.647-9.646,25.291,0,34.94l223.606,223.607
			c4.825,4.825,11.147,7.237,17.473,7.237c6.322,0,12.646-2.412,17.472-7.237l74.538-74.538c4.631-4.631,7.234-10.915,7.234-17.469
			c0-6.553-2.604-12.837-7.234-17.469l-223.61-223.606c-4.634-4.635-10.919-7.237-17.472-7.237s-12.834,2.603-17.473,7.237
			l-19.797,19.797l-61.559-61.56c48.753-56.913,75.347-128.554,75.347-204.294c0-8.104-0.337-16.31-0.972-24.5l387.341-533.451
			C2083.303,437.691,2080.85,422.241,2069.807,414.229z M1712.393,1305.152l188.67,188.67l-39.598,39.597l-188.666-188.669
			L1712.393,1305.152z M796.232,505.988v101.254l-73.154,11.609c-13.475,2.137-22.665,14.797-20.527,28.271
			c1.931,12.166,12.431,20.838,24.368,20.838c1.288,0,2.594-0.101,3.903-0.31l65.41-10.378v163.428l-40.116,6.363
			c-13.476,2.137-22.666,14.797-20.528,28.271c1.932,12.166,12.432,20.838,24.369,20.838c1.287,0,2.594-0.101,3.902-0.31
			l32.373-5.135v163.429l-138.838,22.031L532.981,272.135l627.895-99.638l37.16,234.173l-54.179,74.612H820.936
			C807.291,481.285,796.232,492.345,796.232,505.988z M1481.393,1324.563H845.642v-269.311V841.795V628.342v-97.641h310.767
			c0.006,0,0.012,0.003,0.019,0.003c0.009,0,0.019-0.003,0.024-0.003h82.351h197.675c0.007,0,0.013,0.003,0.02,0.003
			c0.009,0,0.019-0.003,0.031-0.003h44.859v25.813v154.31c-34.147-12.419-70.007-18.713-107.057-18.713
			c-6.903,0-13.775,0.254-20.609,0.697c-1.844-0.438-3.763-0.697-5.74-0.697H979.048c-13.644,0-24.706,11.063-24.706,24.707
			c0,13.644,11.063,24.706,24.706,24.706h225.994c-26.694,17.065-50.966,38.26-71.847,63.166
			c-24.638,29.375-43.363,62.359-55.856,98.24h-98.288c-13.644,0-24.706,11.063-24.706,24.707c0,13.644,11.063,24.706,24.706,24.706
			h85.426c-3.135,17.915-4.719,36.1-4.719,54.354c0,37.078,6.284,72.938,18.681,107.056h-99.384
			c-13.645,0-24.707,11.063-24.707,24.707c0,13.644,11.063,24.706,24.707,24.706h122.362
			c56.094,97.9,159.284,158.112,272.923,158.112c37.074,0,72.934-6.284,107.056-18.681v21.966H1481.393z M1561.84,1194.189
			c-0.004,0.004-0.006,0.007-0.01,0.01c-19.713,19.713-42.25,36.112-66.979,48.753c-37.516,19.179-78.063,28.903-120.516,28.903
			c-100.122,0-190.656-55.428-236.27-144.653c-0.003-0.006-0.006-0.013-0.009-0.019c-19.172-37.51-28.891-78.051-28.891-120.497
			c0-24.484,3.372-48.822,10.028-72.328c10.228-36.135,27.681-69.085,51.869-97.929c50.578-60.318,124.668-94.912,203.275-94.912
			c42.402,0,82.953,9.737,120.512,28.946c79.982,40.903,133.479,118.423,143.088,207.369c0.004,0.016,0.007,0.034,0.007,0.054
			c1.034,9.605,1.563,19.293,1.563,28.8C1639.506,1077.521,1611.924,1144.105,1561.84,1194.189z M1675.443,915.302
			c-23.007-76.219-74.319-141.179-144.642-181.494V604.982l134.301,97.513c4.384,3.182,9.459,4.716,14.493,4.716
			c7.638,0,15.176-3.534,20.013-10.19c8.019-11.041,5.563-26.491-5.478-34.51L1530.802,543.92v-37.925
			c0-13.645-11.06-24.707-24.706-24.707h-61.55l-48.95-35.544c-11.041-8.016-26.494-5.568-34.51,5.476
			c-6.722,9.256-6.063,21.594,0.822,30.068h-123.109h-33.885l39.106-53.856c0.003-0.003,0.006-0.006,0.009-0.012l262.313-361.261
			l514.441,373.535L1675.443,915.302z"/>
	</g>
</g>
<g>
	<g>
		<path d="M1374.336,797.518c-115.338,0-209.172,93.834-209.172,209.172s93.834,209.172,209.172,209.172
			s209.172-93.834,209.172-209.172C1583.508,891.349,1489.674,797.518,1374.336,797.518z M1374.336,1166.449
			c-88.094,0-159.76-71.669-159.76-159.76c0-88.094,71.669-159.76,159.76-159.76c88.094,0,159.76,71.669,159.76,159.76
			S1462.427,1166.449,1374.336,1166.449z"/>
	</g>
</g>
</svg>
