<?xml version="1.0" encoding="utf-8"?>
<!-- Generator: Adobe Illustrator 16.0.3, SVG Export Plug-In . SVG Version: 6.00 Build 0)  -->
<!DOCTYPE svg PUBLIC "-//W3C//DTD SVG 1.1//EN" "http://www.w3.org/Graphics/SVG/1.1/DTD/svg11.dtd">
<svg version="1.1" id="Layer_1" xmlns="http://www.w3.org/2000/svg" xmlns:xlink="http://www.w3.org/1999/xlink" x="0px" y="0px"
	 width="1600px" height="1600px" viewBox="480 0 1600 1600" enable-background="new 480 0 1600 1600" xml:space="preserve">
<g>
	<g>
		<path d="M1328.255,698.72c72.966-19.925,126.772-86.747,126.772-165.942c0-94.856-77.174-172.025-172.025-172.025
			c-94.854,0-172.025,77.169-172.025,172.025c0,79.192,53.807,146.019,126.771,165.942
			c-124.936,21.552-220.301,130.619-220.301,261.616v133.613c0,13.838,11.217,25.053,25.054,25.053h481.001
			c13.838,0,25.053-11.212,25.053-25.053V960.336C1548.553,829.339,1453.189,720.273,1328.255,698.72z M1161.079,532.779
			c0-67.229,54.694-121.922,121.923-121.922s121.922,54.692,121.922,121.922c0,67.229-54.693,121.922-121.922,121.922
			S1161.079,600.004,1161.079,532.779z M1498.449,1068.896h-430.898V960.336c0-118.797,96.65-215.45,215.451-215.45
			s215.45,96.65,215.45,215.45v108.561H1498.449z"/>
	</g>
</g>
<g>
	<g>
		<path d="M1869.837,308.767l-581.647-201.341c-5.303-1.841-11.082-1.841-16.388,0L690.156,308.767
			c-11.587,4.01-18.568,15.818-16.493,27.906l138.903,810.276c1.128,6.591,4.847,12.453,10.324,16.291l442.738,309.916
			c4.313,3.016,9.341,4.524,14.365,4.524c5.027,0,10.054-1.51,14.365-4.524l442.744-309.916c5.481-3.835,9.197-9.7,10.328-16.291
			l138.903-810.276C1888.409,324.585,1881.428,312.771,1869.837,308.767z M1699.818,1128.181l-419.82,293.869l-419.816-293.869
			L726.635,349.157l553.363-191.551l553.361,191.551L1699.818,1128.181z"/>
	</g>
</g>
<g>
	<g>
		<path d="M1982.975,241.882l-694.781-240.5c-5.313-1.841-11.082-1.841-16.389,0l-694.783,240.5
			c-11.587,4.009-18.57,15.815-16.496,27.906l160.334,935.283c1.13,6.591,4.849,12.453,10.325,16.29l534.448,374.113
			c4.313,3.016,9.341,4.524,14.365,4.524c5.027,0,10.054-1.51,14.365-4.524l534.451-374.113c5.481-3.834,9.196-9.699,10.328-16.29
			l160.336-935.283C2001.547,257.697,1994.564,245.891,1982.975,241.882z M1791.521,1186.306l-511.523,358.066l-511.52-358.066
			L613.5,282.275l666.498-230.713l666.495,230.71L1791.521,1186.306z"/>
	</g>
</g>
</svg>
