<?xml version="1.0" encoding="utf-8"?>
<!-- Generator: Adobe Illustrator 16.0.3, SVG Export Plug-In . SVG Version: 6.00 Build 0)  -->
<!DOCTYPE svg PUBLIC "-//W3C//DTD SVG 1.1//EN" "http://www.w3.org/Graphics/SVG/1.1/DTD/svg11.dtd">
<svg version="1.1" id="Layer_1" xmlns="http://www.w3.org/2000/svg" xmlns:xlink="http://www.w3.org/1999/xlink" x="0px" y="0px"
	 width="1600px" height="1600px" viewBox="480 0 1600 1600" enable-background="new 480 0 1600 1600" xml:space="preserve">
<g>
	<g>
		<path d="M1266.412,1236.519c-73.987,0-134.181,60.197-134.181,134.182c0,65.278,94.844,194.037,113.862,219.188
			c4.813,6.368,12.338,10.112,20.322,10.112c7.987,0,15.506-3.744,20.321-10.112c19.016-25.147,113.862-153.909,113.862-219.188
			C1400.594,1296.713,1340.4,1236.519,1266.412,1236.519z M1266.412,1531.166c-39.519-56.438-83.228-130.332-83.228-160.466
			c0-45.891,37.337-83.229,83.228-83.229s83.229,37.338,83.229,83.229C1349.641,1400.834,1305.928,1474.729,1266.412,1531.166z"/>
	</g>
</g>
<g>
	<g>
		<path d="M1881.278,1161.481l-249.685-223.403V460.297c0-0.25-0.031-0.497-0.037-0.747c-0.013-0.497-0.031-0.987-0.075-1.484
			c-0.031-0.365-0.081-0.731-0.128-1.094c-0.063-0.462-0.125-0.922-0.209-1.378c-0.072-0.385-0.16-0.766-0.248-1.141
			c-0.096-0.425-0.203-0.847-0.324-1.266c-0.115-0.396-0.244-0.784-0.379-1.172c-0.134-0.391-0.271-0.781-0.428-1.169
			c-0.162-0.403-0.338-0.794-0.519-1.188c-0.163-0.356-0.328-0.709-0.513-1.063c-0.213-0.415-0.443-0.815-0.684-1.212
			c-0.188-0.316-0.373-0.632-0.572-0.941c-0.271-0.418-0.563-0.818-0.859-1.219c-0.146-0.199-0.271-0.412-0.428-0.609
			L1286.484,9.791C1281.662,3.616,1274.256,0,1266.412,0s-15.25,3.616-20.074,9.794L906.631,444.612
			c-0.152,0.197-0.277,0.406-0.428,0.609c-0.297,0.4-0.588,0.804-0.859,1.219c-0.2,0.31-0.385,0.625-0.572,0.94
			c-0.234,0.4-0.469,0.804-0.684,1.213c-0.182,0.35-0.348,0.706-0.51,1.063c-0.182,0.394-0.356,0.784-0.519,1.188
			c-0.156,0.388-0.294,0.778-0.429,1.169c-0.131,0.388-0.266,0.774-0.378,1.172c-0.122,0.422-0.225,0.844-0.325,1.266
			c-0.087,0.378-0.178,0.756-0.246,1.141c-0.085,0.459-0.15,0.919-0.21,1.378c-0.047,0.362-0.1,0.729-0.128,1.094
			c-0.044,0.497-0.063,0.987-0.075,1.484c-0.006,0.25-0.037,0.497-0.037,0.747v477.781l-249.685,223.403
			c-7.872,7.04-10.581,18.212-6.813,28.081c3.769,9.865,13.237,16.381,23.8,16.381h258.175h679.406h258.176
			c10.563,0,20.027-6.516,23.8-16.384C1891.859,1179.693,1889.153,1168.521,1881.278,1161.481z M901.231,1154.99H735.219
			l166.013-148.534V1154.99z M1266.412,66.859l287.466,367.959H978.943L1266.412,66.859z M1580.638,1154.99h-628.45V974.947h628.45
			V1154.99z M1580.638,923.99h-628.45V485.775h628.45V923.99z M1631.594,1154.99v-148.534l166.013,148.534H1631.594z"/>
	</g>
</g>
<g>
	<g>
		<path d="M1967.022,843.523c-14.072,0-25.479,11.406-25.479,25.479v461.996c0,14.072,11.406,25.479,25.479,25.479
			c14.071,0,25.478-11.406,25.478-25.479V869.002C1992.5,854.933,1981.094,843.523,1967.022,843.523z"/>
	</g>
</g>
<g>
	<g>
		<path d="M1727.113,720.171c-14.071,0-25.478,11.406-25.478,25.479v163.056c0,14.073,11.406,25.479,25.478,25.479
			c14.072,0,25.479-11.406,25.479-25.479V745.648C1752.592,731.577,1741.186,720.171,1727.113,720.171z"/>
	</g>
</g>
<g>
	<g>
		<path d="M561.978,786.413c-14.071,0-25.478,11.406-25.478,25.479v543.525c0,14.071,11.406,25.478,25.478,25.478
			c14.072,0,25.479-11.406,25.479-25.478V811.892C587.453,797.819,576.047,786.413,561.978,786.413z"/>
	</g>
</g>
<g>
	<g>
		<path d="M791.057,638.641c-14.072,0-25.479,11.406-25.479,25.478v244.588c0,14.072,11.406,25.479,25.479,25.479
			c14.071,0,25.478-11.406,25.478-25.479V664.118C816.534,650.05,805.128,638.641,791.057,638.641z"/>
	</g>
</g>
</svg>
