<?xml version="1.0" encoding="utf-8"?>
<!-- Generator: Adobe Illustrator 16.0.3, SVG Export Plug-In . SVG Version: 6.00 Build 0)  -->
<!DOCTYPE svg PUBLIC "-//W3C//DTD SVG 1.1//EN" "http://www.w3.org/Graphics/SVG/1.1/DTD/svg11.dtd">
<svg version="1.1" id="Layer_1" xmlns="http://www.w3.org/2000/svg" xmlns:xlink="http://www.w3.org/1999/xlink" x="0px" y="0px"
	 width="1600px" height="1600px" viewBox="480 0 1600 1600" enable-background="new 480 0 1600 1600" xml:space="preserve">
<path d="M2077.242,158.42c-4.994-9.852-15.781-15.391-26.662-13.688l-136.323,21.015l21.015-136.324
	c1.682-10.911-3.84-21.668-13.688-26.662c-9.853-4.994-21.794-3.091-29.601,4.718l-158.243,158.244
	c-3.837,3.84-6.353,8.8-7.176,14.165l-25.049,162.495l-90.583,90.584c-124.78-115.847-286.305-179.384-457.717-179.384
	c-179.962,0-349.059,69.988-476.139,197.069C549.988,577.736,480,746.832,480,926.795s69.988,349.056,197.068,476.14
	C804.153,1530.016,973.249,1600,1153.209,1600c179.959,0,349.059-69.988,476.139-197.069
	c127.081-127.084,197.069-296.18,197.069-476.14c0-143.152-44.241-279.792-127.942-395.152
	c-8.282-11.417-24.255-13.957-35.659-5.671c-11.415,8.282-13.954,24.245-5.672,35.659c77.335,106.588,118.21,232.858,118.21,365.168
	c0,343.05-279.095,622.142-622.145,622.142c-343.051,0-622.146-279.092-622.146-622.142S810.158,304.65,1153.209,304.65
	c157.77,0,306.471,58.229,421.582,164.452L1458.08,585.814c-83.926-75.152-191.422-116.334-304.875-116.334
	c-252.167,0-457.317,205.154-457.317,457.318c0,252.163,205.15,457.317,457.317,457.317s457.314-205.154,457.314-457.317
	c0-84.164-23.014-166.407-66.547-237.842c-7.34-12.041-23.051-15.857-35.091-8.515c-12.041,7.336-15.851,23.051-8.515,35.091
	c38.652,63.429,59.084,136.483,59.084,211.269c0,224.011-182.243,406.254-406.25,406.254c-224.01,0-406.253-182.243-406.253-406.254
	s182.243-406.254,406.253-406.254c99.837,0,194.488,35.874,268.723,101.423l-116.988,116.987
	c-42.809-34.699-95.799-53.583-151.734-53.583c-133.119,0-241.423,108.304-241.423,241.427s108.304,241.423,241.423,241.423
	c133.124,0,241.424-108.3,241.424-241.423c0-23.718-3.432-47.159-10.196-69.679c-4.058-13.504-18.294-21.171-31.799-17.103
	c-13.505,4.055-21.165,18.291-17.104,31.799c5.331,17.75,8.034,36.245,8.034,54.982c0,104.964-85.396,190.359-190.359,190.359
	c-104.963,0-190.359-85.396-190.359-190.359c0-104.967,85.396-190.362,190.359-190.362c42.268,0,82.383,13.688,115.357,38.896
	l-133.413,133.413c-9.972,9.975-9.972,26.138,0,36.108c4.983,4.984,11.52,7.477,18.053,7.477c6.532,0,13.069-2.492,18.053-7.477
	l458.005-458.005c0.156-0.156,108.351-108.351,108.351-108.351l162.495-25.052c5.365-0.824,10.325-3.34,14.166-7.176
	l158.243-158.244C2080.33,180.211,2082.232,168.269,2077.242,158.42L2077.242,158.42z M1775.752,195.925l97.164-97.161
	l-13.161,85.375l-97.164,97.164L1775.752,195.925z M1884.075,304.252l-85.372,13.161l97.164-97.165l85.369-13.161L1884.075,304.252
	L1884.075,304.252z"/>
</svg>
