<?xml version="1.0" encoding="utf-8"?>
<!-- Generator: Adobe Illustrator 16.0.3, SVG Export Plug-In . SVG Version: 6.00 Build 0)  -->
<!DOCTYPE svg PUBLIC "-//W3C//DTD SVG 1.1//EN" "http://www.w3.org/Graphics/SVG/1.1/DTD/svg11.dtd">
<svg version="1.1" id="Layer_1" xmlns="http://www.w3.org/2000/svg" xmlns:xlink="http://www.w3.org/1999/xlink" x="0px" y="0px"
	 width="1600px" height="1600px" viewBox="480 0 1600 1600" enable-background="new 480 0 1600 1600" xml:space="preserve">
<g>
	<path d="M1952.34,774.468h-262.232c-2.08-127.448-19.684-250.607-50.284-359.81h171.976c14.104,0,25.532-11.428,25.532-25.531
		s-11.428-25.532-25.532-25.532h-187.615c-27.295-82.264-62.352-154.965-104.01-213.297c-8.197-11.476-24.146-14.138-35.615-5.94
		c-11.477,8.194-14.135,24.143-5.94,35.615c36.146,50.615,67.022,113.018,91.796,183.622h-264.882V127.66
		c0-14.104-11.429-25.532-25.532-25.532s-25.532,11.428-25.532,25.532v235.935H989.583c24.772-70.604,55.649-133.007,91.796-183.622
		c8.193-11.472,5.535-27.421-5.94-35.615c-11.479-8.194-27.421-5.532-35.615,5.94c-41.658,58.332-76.715,131.037-104.011,213.297
		H748.197c-14.104,0-25.531,11.429-25.531,25.532s11.428,25.531,25.531,25.531h171.977
		c-30.598,109.202-48.201,232.361-50.284,359.81H607.66c-14.104,0-25.532,11.429-25.532,25.532s11.428,25.532,25.532,25.532h262.232
		c2.08,127.448,19.684,250.607,50.284,359.81H748.197c-14.104,0-25.531,11.428-25.531,25.531s11.428,25.532,25.531,25.532h187.615
		c27.299,82.277,62.366,154.992,104.034,213.331c4.984,6.976,12.834,10.696,20.8,10.696c5.134,0,10.318-1.546,14.819-4.756
		c11.472-8.197,14.131-24.144,5.937-35.619c-36.156-50.618-67.04-113.035-91.819-183.649h264.886v235.932
		c0,14.104,11.428,25.532,25.531,25.532s25.532-11.428,25.532-25.532v-235.935h264.885
		c-24.776,70.617-55.663,133.031-91.819,183.649c-8.194,11.476-5.535,27.421,5.937,35.618c4.497,3.21,9.683,4.756,14.819,4.756
		c7.969,0,15.816-3.721,20.8-10.696c41.668-58.338,76.731-131.054,104.034-213.331h187.615c14.104,0,25.531-11.428,25.531-25.531
		c0-14.104-11.428-25.532-25.531-25.532h-171.98c30.602-109.202,48.205-232.361,50.285-359.81h262.232
		c14.104,0,25.532-11.428,25.532-25.532C1977.872,785.893,1966.444,774.468,1952.34,774.468z M1586.859,414.658
		c31.704,107.857,50.025,231.347,52.174,359.81h-333.501v-359.81H1586.859z M973.141,414.658h281.328v359.81H920.967
		C923.118,646.002,941.437,522.516,973.141,414.658z M973.141,1185.342c-31.704-107.857-50.025-231.347-52.174-359.81h333.502
		v359.81H973.141z M1586.859,1185.342h-281.327v-359.81h333.501C1636.882,953.998,1618.563,1077.487,1586.859,1185.342z"/>
	<path d="M1845.686,234.315C1694.584,83.214,1493.688,0,1280,0S865.416,83.214,714.314,234.315
		C563.214,385.416,480,586.312,480,800.004c0,157.518,45.586,309.443,131.963,440.225l-97.764,293.27
		c-3.057,9.175-0.671,19.292,6.168,26.131c6.84,6.836,16.95,9.219,26.132,6.169l293.276-97.757
		C970.561,1554.414,1122.481,1600,1280,1600c213.688,0,414.584-83.214,565.686-234.314
		C1996.786,1214.584,2080,1013.688,2080,800.004C2080,586.312,1996.786,385.416,1845.686,234.315z M1280,1548.937
		c-151.459,0-297.379-45.012-421.995-130.162c-4.296-2.935-9.324-4.452-14.403-4.452c-2.713,0-5.439,0.432-8.074,1.311
		l-256.736,85.572l85.584-256.729c2.521-7.574,1.357-15.891-3.143-22.481c-85.157-124.609-130.169-270.533-130.169-421.991
		c0-412.967,335.97-748.94,748.937-748.94s748.936,335.973,748.936,748.94C2028.936,1212.967,1692.967,1548.937,1280,1548.937z"/>
</g>
</svg>
