<?xml version="1.0" encoding="utf-8"?>
<!-- Generator: Adobe Illustrator 16.0.3, SVG Export Plug-In . SVG Version: 6.00 Build 0)  -->
<!DOCTYPE svg PUBLIC "-//W3C//DTD SVG 1.1//EN" "http://www.w3.org/Graphics/SVG/1.1/DTD/svg11.dtd">
<svg version="1.1" id="Layer_1" xmlns="http://www.w3.org/2000/svg" xmlns:xlink="http://www.w3.org/1999/xlink" x="0px" y="0px"
	 width="1600px" height="1600px" viewBox="480 0 1600 1600" enable-background="new 480 0 1600 1600" xml:space="preserve">
<g>
	<g>
		<path d="M1754.324,420.457c-21.391,0-42.597,2.075-63.396,6.188c1.063-11.494,1.6-23.041,1.6-34.578
			c0-205.366-167.078-372.444-372.444-372.444c-203.435,0-369.301,163.944-372.401,366.657
			c-36.871-12.801-75.5-19.266-115.284-19.266c-194.31,0-352.397,158.087-352.397,352.4c0,87.856,32.521,172.019,91.575,236.979
			c56.578,62.237,132.916,101.984,215.798,112.572c3.475,1.825,7.428,2.853,11.625,2.853h227.141v296.451
			c0,13.834,11.216,25.053,25.053,25.053h454.282c13.835,0,25.054-11.216,25.054-25.053v-296.451h217.119
			c0.527,0,1.05-0.016,1.568-0.05c1.7,0.031,3.403,0.05,5.109,0.05c179.582,0,325.679-146.097,325.679-325.679
			C2080.003,566.558,1933.906,420.457,1754.324,420.457z M1505.471,795.408c-13.834,0-25.053,11.215-25.053,25.053v226.307v296.451
			h-404.176v-296.451V820.461c0-13.834-11.216-25.053-25.054-25.053H868.241l410.116-331.086l411.539,331.086H1505.471z
			 M1754.324,1021.711c-2.05,0-4.09-0.034-6.128-0.078c-0.859-0.021-1.728,0.007-2.585,0.078h-215.084v-176.2h230.481
			c10.625,0,20.101-6.703,23.628-16.728c3.531-10.025,0.354-21.185-7.925-27.844l-482.673-388.311
			c-9.182-7.385-22.269-7.375-31.438,0.028L781.595,800.964c-8.263,6.672-11.426,17.825-7.888,27.838
			c3.537,10.016,13.003,16.709,23.622,16.709h228.81v176.2H808.038c-2.05-0.79-4.234-1.324-6.516-1.556
			c-154.731-15.682-271.419-144.973-271.419-300.741c0-166.688,135.609-302.298,302.297-302.298
			c45.875,0,89.926,10.007,130.929,29.741c8.132,3.915,17.737,3.152,25.153-1.994c7.412-5.146,11.484-13.885,10.659-22.872
			c-0.925-10.075-1.396-20.141-1.396-29.928c0-177.738,144.6-322.338,322.338-322.338c177.737,0,322.338,144.6,322.338,322.338
			c0,21.287-2.1,42.625-6.25,63.419c-1.743,8.731,1.281,17.734,7.944,23.641c6.659,5.909,15.953,7.841,24.418,5.071
			c27.635-9.047,56.498-13.631,85.788-13.631c151.953,0,275.575,123.622,275.575,275.575
			C2029.9,898.093,1906.277,1021.711,1754.324,1021.711z"/>
	</g>
</g>
<g>
	<g>
		<path d="M1505.471,1436.743h-454.282c-13.834,0-25.053,11.216-25.053,25.054c0,13.837,11.216,25.053,25.053,25.053h454.282
			c13.834,0,25.053-11.216,25.053-25.053C1530.523,1447.959,1519.312,1436.743,1505.471,1436.743z"/>
	</g>
</g>
<g>
	<g>
		<path d="M1505.471,1530.271h-454.282c-13.834,0-25.053,11.216-25.053,25.054c0,13.837,11.216,25.053,25.053,25.053h454.282
			c13.834,0,25.053-11.216,25.053-25.053C1530.523,1541.487,1519.312,1530.271,1505.471,1530.271z"/>
	</g>
</g>
</svg>
