<?xml version="1.0" encoding="utf-8"?>
<!-- Generator: Adobe Illustrator 16.0.3, SVG Export Plug-In . SVG Version: 6.00 Build 0)  -->
<!DOCTYPE svg PUBLIC "-//W3C//DTD SVG 1.1//EN" "http://www.w3.org/Graphics/SVG/1.1/DTD/svg11.dtd">
<svg version="1.1" id="Layer_1" xmlns="http://www.w3.org/2000/svg" xmlns:xlink="http://www.w3.org/1999/xlink" x="0px" y="0px"
	 width="1600px" height="1600px" viewBox="480 0 1600 1600" enable-background="new 480 0 1600 1600" xml:space="preserve">
<g>
	<g>
		<path d="M932.609,1302.713H785.638c-13.838,0-25.054,11.215-25.054,25.053v133.612c0,13.835,11.213,25.054,25.054,25.054h146.972
			c13.838,0,25.053-11.216,25.053-25.054v-133.612C957.662,1313.932,946.447,1302.713,932.609,1302.713z M907.557,1436.325h-96.869
			v-83.507h96.869V1436.325z"/>
	</g>
</g>
<g>
	<g>
		<path d="M1213.193,1302.713h-146.972c-13.837,0-25.053,11.215-25.053,25.053v133.612c0,13.835,11.212,25.054,25.053,25.054
			h146.972c13.838,0,25.054-11.216,25.054-25.054v-133.612C1238.247,1313.932,1227.034,1302.713,1213.193,1302.713z
			 M1188.141,1436.325h-96.869v-83.507h96.869V1436.325z"/>
	</g>
</g>
<g>
	<g>
		<path d="M1774.362,100.209h-146.972c-13.838,0-25.053,11.215-25.053,25.053v133.612c0,13.834,11.212,25.053,25.053,25.053h146.972
			c13.838,0,25.054-11.216,25.054-25.053V125.259C1799.416,111.425,1788.203,100.209,1774.362,100.209z M1749.313,233.822h-96.869
			v-83.509h96.869V233.822z"/>
	</g>
</g>
<g>
	<g>
		<path d="M1493.778,1302.713h-146.972c-13.838,0-25.054,11.215-25.054,25.053v133.612c0,13.835,11.213,25.054,25.054,25.054
			h146.972c13.837,0,25.053-11.216,25.053-25.054v-133.612C1518.831,1313.932,1507.619,1302.713,1493.778,1302.713z
			 M1468.729,1436.325h-96.869v-83.507h96.869V1436.325z"/>
	</g>
</g>
<g>
	<g>
		<path d="M932.609,100.209H785.638c-13.838,0-25.054,11.215-25.054,25.053v133.612c0,13.834,11.213,25.053,25.054,25.053h146.972
			c13.838,0,25.053-11.216,25.053-25.053V125.259C957.662,111.425,946.447,100.209,932.609,100.209z M907.557,233.822h-96.869
			v-83.509h96.869V233.822z"/>
	</g>
</g>
<g>
	<g>
		<path d="M1493.778,100.209h-146.972c-13.838,0-25.054,11.215-25.054,25.053v133.612c0,13.834,11.213,25.053,25.054,25.053h146.972
			c13.837,0,25.053-11.216,25.053-25.053V125.259C1518.831,111.425,1507.619,100.209,1493.778,100.209z M1468.729,233.822h-96.869
			v-83.509h96.869V233.822z"/>
	</g>
</g>
<g>
	<g>
		<path d="M1213.193,100.209h-146.972c-13.837,0-25.053,11.215-25.053,25.053v133.612c0,13.834,11.212,25.053,25.053,25.053h146.972
			c13.838,0,25.054-11.216,25.054-25.053V125.259C1238.247,111.425,1227.034,100.209,1213.193,100.209z M1188.141,233.822h-96.869
			v-83.509h96.869V233.822z"/>
	</g>
</g>
<g>
	<g>
		<path d="M2054.947,150.313c13.837,0,25.053-11.216,25.053-25.053V45.094c0-13.834-11.213-25.053-25.053-25.053H505.053
			c-13.84,0-25.053,11.219-25.053,25.053v80.166c0,13.837,11.213,25.053,25.053,25.053h121.922v83.506H505.053
			C491.213,233.822,480,245.038,480,258.872v106.891v868.475v93.528c0,13.834,11.213,25.053,25.053,25.053h121.922v83.507H505.053
			c-13.837,0-25.053,11.216-25.053,25.053v93.528c0,13.834,11.213,25.053,25.053,25.053H2054.95
			c13.837,0,25.054-11.215,25.054-25.053v-93.528c0-13.834-11.213-25.053-25.054-25.053h-121.922v-83.507h121.922
			c13.837,0,25.054-11.215,25.054-25.053v-93.528V365.763V258.872c0-13.834-11.213-25.053-25.054-25.053h-121.922v-83.506H2054.947z
			 M2029.896,1302.713h-121.922c-13.837,0-25.053,11.215-25.053,25.053v133.612c0,13.835,11.213,25.054,25.053,25.054h121.922
			v43.425H530.104v-43.425h121.922c13.837,0,25.053-11.216,25.053-25.054v-133.612c0-13.834-11.213-25.053-25.053-25.053H530.104
			v-43.426h1499.79v43.426H2029.896z M2029.896,1209.185H530.104V390.815h1499.79v818.369H2029.896z M1907.975,283.925h121.922
			v56.784H530.104v-56.784h121.922c13.837,0,25.053-11.215,25.053-25.053V125.259c0-13.834-11.213-25.053-25.053-25.053H530.104
			V70.144h1499.79v30.063h-121.922c-13.837,0-25.053,11.216-25.053,25.053v133.613
			C1882.922,272.709,1894.138,283.925,1907.975,283.925z"/>
	</g>
</g>
<g>
	<g>
		<path d="M1774.362,1302.713h-146.972c-13.838,0-25.053,11.215-25.053,25.053v133.612c0,13.835,11.212,25.054,25.053,25.054
			h146.972c13.838,0,25.054-11.216,25.054-25.054v-133.612C1799.416,1313.932,1788.203,1302.713,1774.362,1302.713z
			 M1749.313,1436.325h-96.869v-83.507h96.869V1436.325z"/>
	</g>
</g>
<g>
	<g>
		<path d="M1280,440.919C1082.003,440.919,920.919,602,920.919,800s161.084,359.081,359.081,359.081S1639.081,998,1639.081,800
			S1477.997,440.919,1280,440.919z M1280,1108.979c-170.372,0-308.979-138.606-308.979-308.979S1109.628,491.021,1280,491.021
			S1588.979,629.628,1588.979,800S1450.372,1108.979,1280,1108.979z"/>
	</g>
</g>
<g>
	<g>
		<path d="M1430.597,777.347l-203.266-157.484c-7.563-5.856-17.787-6.894-26.372-2.693c-8.581,4.209-14.021,12.938-14.021,22.493
			v320.669c0,9.641,5.528,18.425,14.216,22.594c3.446,1.653,7.146,2.463,10.828,2.463c5.6,0,11.153-1.875,15.688-5.516
			l203.266-163.185c5.981-4.803,9.435-12.081,9.368-19.753C1440.231,789.266,1436.659,782.047,1430.597,777.347z M1237.041,908.094
			V690.766l0,0L1374.8,797.5L1237.041,908.094z"/>
	</g>
</g>
</svg>
