<?xml version="1.0" encoding="utf-8"?>
<!-- Generator: Adobe Illustrator 16.0.3, SVG Export Plug-In . SVG Version: 6.00 Build 0)  -->
<!DOCTYPE svg PUBLIC "-//W3C//DTD SVG 1.1//EN" "http://www.w3.org/Graphics/SVG/1.1/DTD/svg11.dtd">
<svg version="1.1" id="Layer_1" xmlns="http://www.w3.org/2000/svg" xmlns:xlink="http://www.w3.org/1999/xlink" x="0px" y="0px"
	 width="1930.271px" height="500px" viewBox="0 0 1930.271 500" enable-background="new 0 0 1930.271 500" xml:space="preserve">
<path fill="#FFFFFF" stroke="#FFFFFF" stroke-width="2" stroke-miterlimit="10" d="M650.146,254.35h-93.05v85.218h96.298
	l1.258-13.673h14.837v27.923H525.219V341.4l15.223-1.834V162.781l-15.223-1.834V148.39h15.223h128.352v26.167h-14.837l-1.261-11.776
	h-95.598v77.176h93.051v14.393H650.146z"/>
<path fill="#FFFFFF" stroke="#FFFFFF" stroke-width="2" stroke-miterlimit="10" d="M705.217,213.715v-12.556h28.16l1.543,25.253
	c4.85-8.935,11.337-15.848,19.452-20.74c8.119-4.89,17.776-7.337,28.977-7.337c11.566,0,21.226,2.848,28.974,8.537
	c7.744,5.692,13.294,14.369,16.656,26.031c4.57-10.721,11.077-19.163,19.522-25.325c8.445-6.159,18.733-9.242,30.863-9.242
	c16.142,0,28.624,5.411,37.443,16.226c8.815,10.817,13.225,27.562,13.225,50.229v74.636l13.323,1.977v12.416h-45.48V341.4
	l15.223-1.977v-74.918c0-18.81-3.289-32.098-9.869-39.857c-6.576-7.761-15.744-11.641-27.5-11.641
	c-13.068,0-23.119,4.188-30.164,12.557c-7.048,8.373-11.406,19.047-13.091,32.027c0,0.756,0.022,1.46,0.071,2.117
	c0.048,0.658,0.07,1.505,0.07,2.538v77.317l15.222,1.835v12.416h-47.238V341.4l15.223-1.834v-75.061
	c0-18.434-3.341-31.626-10.011-39.575c-6.673-7.949-15.841-11.923-27.504-11.923c-11.945,0-21.392,3.034-28.343,9.1
	s-11.826,14.229-14.625,24.48v92.979l15.222,1.834v12.416h-45.344V341.4l13.324-1.834V215.548L705.217,213.715z"/>
<path fill="#FFFFFF" stroke="#FFFFFF" stroke-width="2" stroke-miterlimit="10" d="M970.982,213.715v-12.556h29.219l2.102,23.702
	c5.127-8.466,11.687-15.002,19.664-19.613c7.979-4.607,17.331-6.914,28.064-6.914c18.194,0,32.424,7.315,42.688,21.94
	c10.263,14.627,15.396,34.123,15.396,58.48v2.964c0,22.856-5.136,41.081-15.396,54.672c-10.266,13.596-24.4,20.388-42.412,20.388
	c-10.636,0-19.944-2.044-27.923-6.138c-7.979-4.092-14.483-9.896-19.522-17.425v68.697l15.223,1.834v12.558h-47.102v-12.558
	l15.223-1.834V215.548L970.982,213.715z M1091.319,278.756c0-19.374-3.826-35.177-11.475-47.405
	c-7.655-12.227-18.853-18.342-33.597-18.342c-11.288,0-20.456,2.704-27.5,8.113c-7.048,5.409-12.342,12.439-15.887,21.093v73.367
	c3.821,8.372,9.354,14.954,16.582,19.752c7.233,4.797,16.262,7.195,27.087,7.195c14.646,0,25.776-5.55,33.381-16.648
	c7.606-11.097,11.407-25.818,11.407-44.16L1091.319,278.756L1091.319,278.756z"/>
<path fill="#FFFFFF" stroke="#FFFFFF" stroke-width="2" stroke-miterlimit="10" d="M1478.253,201.159l2.103,25.395v1.835
	c4.289-9.406,10.146-16.767,17.564-22.082c7.419-5.313,16.212-7.973,26.387-7.973c2.143,0,4.219,0.165,6.228,0.495
	c2.006,0.33,3.659,0.682,4.968,1.059l-2.238,15.801l-12.457-0.846c-10.548,0-19.199,2.986-25.966,8.959
	c-6.767,5.974-11.593,14.179-14.485,24.62v91.145l15.224,1.834v12.416h-47.103V341.4l15.224-1.834V215.548l-15.224-1.833v-12.556
	h15.224H1478.253z"/>
<polygon fill="#FFFFFF" stroke="#FFFFFF" stroke-width="2" stroke-miterlimit="10" points="1565.566,341.4 1580.79,339.566 
	1580.79,215.548 1565.566,213.715 1565.566,201.159 1597.447,201.159 1597.447,339.566 1612.669,341.4 1612.669,353.816 
	1565.566,353.816 "/>
<path fill="#FFFFFF" stroke="#FFFFFF" stroke-width="2" stroke-miterlimit="10" d="M1752.951,353.816
	c-1.12-5.172-1.917-9.641-2.381-13.402c-0.471-3.763-0.7-7.572-0.7-11.43c-5.599,7.994-13.063,14.628-22.396,19.894
	c-9.332,5.267-19.83,7.9-31.494,7.9c-14.836,0-26.312-3.855-34.43-11.568c-8.119-7.712-12.179-18.153-12.179-31.321
	c0-14.109,6.021-25.303,18.058-33.578c12.034-8.276,28.365-12.416,48.989-12.416h33.451v-20.175
	c0-10.913-3.478-19.473-10.429-25.681s-16.68-9.312-29.186-9.312c-8.396,0-16.07,1.154-23.021,3.457
	c-6.955,2.307-12.762,5.432-17.428,9.382l-1.397,12.866h-13.858l0.142-21.755c7-5.453,15.37-9.876,25.125-13.263
	c9.75-3.385,20.131-5.079,31.142-5.079c16.701,0,30.141,4.282,40.311,12.842c10.173,8.559,15.26,20.834,15.26,36.821v75.061
	c0,3.105,0.07,6.093,0.207,8.959c0.141,2.871,0.445,5.669,0.912,8.396l9.42,0.986v12.416L1752.951,353.816L1752.951,353.816z
	 M1697.801,341.823c12.131,0,22.814-2.821,32.055-8.466c9.237-5.644,15.906-12.932,20.016-21.867v-30.617h-33.733
	c-15.211,0-27.362,3.176-36.461,9.525c-9.098,6.348-13.646,14.367-13.646,24.054c0,8.184,2.821,14.792,8.468,19.823
	C1680.143,339.308,1687.909,341.823,1697.801,341.823z"/>
<path fill="#FFFFFF" stroke="#FFFFFF" stroke-width="2" stroke-miterlimit="10" d="M1812.689,146.274v-12.557h31.879v205.851
	l15.224,1.834v12.416h-47.103V341.4l15.224-1.834V148.108L1812.689,146.274z"/>
<path fill="#FFFFFF" stroke="#FFFFFF" stroke-width="2" stroke-miterlimit="10" d="M1259.852,232.389
	c0,50.544-73.184,52.339-99.269,50.247c0.953,28.112,14.313,58.321,52.496,58.321c23.228,0,36.591-10.768,41.044-14.058
	l7.952,10.468c-9.861,7.775-26.403,16.449-48.679,16.449c-47.724,0-68.406-31.701-68.406-76.267
	c0-44.265,26.096-79.259,71.272-79.259C1244.896,198.292,1259.852,212.947,1259.852,232.389z M1215.626,210.256
	c-39.453,0-53.774,35.591-54.724,60.116c17.18,1.496,82.725,0.299,82.725-34.693
	C1243.627,219.528,1232.168,210.256,1215.626,210.256z"/>
<path fill="#FFFFFF" stroke="#FFFFFF" stroke-width="2" stroke-miterlimit="10" d="M1407.669,232.389
	c0,50.544-73.183,52.339-99.271,50.247c0.955,28.112,14.313,58.321,52.49,58.321c23.23,0,36.592-10.768,41.053-14.058l7.951,10.468
	c-9.865,7.775-26.41,16.449-48.681,16.449c-47.726,0-68.408-31.701-68.408-76.267c0-44.265,26.089-79.259,71.271-79.259
	C1392.706,198.292,1407.669,212.947,1407.669,232.389z M1363.438,210.256c-39.453,0-53.768,35.591-54.725,60.116
	c17.184,1.496,82.723,0.299,82.723-34.693C1391.436,219.528,1379.986,210.256,1363.438,210.256z"/>
<rect x="1574.947" y="135.142" fill="#FFFFFF" stroke="#FFFFFF" stroke-width="2" stroke-miterlimit="10" width="20.854" height="20.852"/>
<rect y="34.628" fill="#FFFFFF" width="374.351" height="431.414"/>
<rect x="17.043" y="50.452" fill="#222222" width="340.266" height="399.765"/>
<rect x="64.061" y="97.549" fill="#FFFFFF" width="250.027" height="15.186"/>
<rect x="64.061" y="139.033" fill="#FFFFFF" width="250.025" height="15.186"/>
<rect x="64.061" y="222" fill="#FFFFFF" width="250.025" height="15.186"/>
<rect x="64.061" y="304.97" fill="#FFFFFF" width="108.66" height="15.187"/>
<rect x="64.061" y="346.451" fill="#FFFFFF" width="250.025" height="15.185"/>
<rect x="64.061" y="387.936" fill="#FFFFFF" width="250.027" height="15.187"/>
<rect x="64.061" y="180.519" fill="#FFFFFF" width="106.941" height="15.186"/>
<rect x="64.061" y="263.484" fill="#FFFFFF" width="250.025" height="15.186"/>
</svg>
