<?xml version="1.0" encoding="utf-8"?>
<!-- Generator: Adobe Illustrator 16.0.3, SVG Export Plug-In . SVG Version: 6.00 Build 0)  -->
<!DOCTYPE svg PUBLIC "-//W3C//DTD SVG 1.1//EN" "http://www.w3.org/Graphics/SVG/1.1/DTD/svg11.dtd">
<svg version="1.1" id="Layer_1" xmlns="http://www.w3.org/2000/svg" xmlns:xlink="http://www.w3.org/1999/xlink" x="0px" y="0px"
	 width="1930.272px" height="500px" viewBox="0 0 1930.272 500" enable-background="new 0 0 1930.272 500" xml:space="preserve">
<path fill="#222222" stroke="#222222" stroke-width="2" stroke-miterlimit="10" d="M650.147,254.35h-93.05v85.217h96.298
	l1.257-13.673h14.837v27.923H525.219V341.4l15.222-1.834V162.781l-15.222-1.834V148.39h15.222h128.352v26.167h-14.837l-1.261-11.776
	h-95.597v77.176h93.05V254.35z"/>
<path fill="#222222" stroke="#222222" stroke-width="2" stroke-miterlimit="10" d="M705.217,213.715v-12.556h28.16l1.543,25.253
	c4.849-8.935,11.337-15.848,19.452-20.74c8.119-4.89,17.776-7.337,28.977-7.337c11.566,0,21.225,2.848,28.973,8.537
	c7.744,5.692,13.294,14.369,16.657,26.031c4.57-10.721,11.077-19.163,19.522-25.325c8.445-6.159,18.733-9.242,30.863-9.242
	c16.142,0,28.624,5.411,37.444,16.226c8.815,10.817,13.224,27.562,13.224,50.229v74.636l13.324,1.976v12.416h-45.481V341.4
	l15.223-1.976v-74.918c0-18.81-3.289-32.098-9.869-39.857c-6.577-7.761-15.745-11.641-27.501-11.641
	c-13.068,0-23.119,4.188-30.163,12.557c-7.048,8.373-11.407,19.047-13.091,32.027c0,0.755,0.022,1.46,0.071,2.117
	c0.048,0.658,0.07,1.505,0.07,2.538v77.318l15.222,1.834v12.416h-47.238V341.4l15.222-1.834v-75.06
	c0-18.434-3.34-31.626-10.01-39.575c-6.673-7.949-15.841-11.923-27.504-11.923c-11.945,0-21.392,3.034-28.343,9.1
	c-6.951,6.066-11.826,14.229-14.625,24.48v92.978l15.222,1.834v12.416h-45.344V341.4l13.324-1.834V215.548L705.217,213.715z"/>
<path fill="#222222" stroke="#222222" stroke-width="2" stroke-miterlimit="10" d="M970.983,213.715v-12.556h29.218l2.102,23.702
	c5.127-8.466,11.686-15.002,19.664-19.613c7.978-4.607,17.331-6.914,28.064-6.914c18.195,0,32.424,7.315,42.689,21.94
	c10.262,14.627,15.396,34.123,15.396,58.48v2.964c0,22.856-5.135,41.081-15.396,54.672c-10.266,13.595-24.401,20.387-42.412,20.387
	c-10.636,0-19.945-2.044-27.923-6.137c-7.979-4.092-14.484-9.897-19.523-17.425v68.697l15.223,1.834v12.558h-47.102v-12.558
	l15.223-1.834V215.548L970.983,213.715z M1091.319,278.756c0-19.374-3.826-35.177-11.474-47.405
	c-7.656-12.227-18.853-18.342-33.597-18.342c-11.288,0-20.456,2.704-27.5,8.113c-7.048,5.409-12.342,12.439-15.887,21.093v73.367
	c3.822,8.372,9.354,14.954,16.583,19.752c7.233,4.797,16.261,7.195,27.086,7.195c14.647,0,25.777-5.55,33.381-16.648
	c7.607-11.097,11.407-25.818,11.407-44.161V278.756z"/>
<path fill="#222222" stroke="#222222" stroke-width="2" stroke-miterlimit="10" d="M1478.253,201.159l2.102,25.395v1.835
	c4.29-9.406,10.147-16.767,17.565-22.082c7.419-5.313,16.212-7.973,26.386-7.973c2.143,0,4.219,0.165,6.228,0.495
	c2.006,0.33,3.659,0.682,4.968,1.059l-2.239,15.801l-12.456-0.846c-10.548,0-19.2,2.986-25.966,8.959
	c-6.767,5.974-11.593,14.179-14.485,24.62v91.144l15.223,1.834v12.416h-47.102V341.4l15.223-1.834V215.548l-15.223-1.833v-12.556
	h15.223H1478.253z"/>
<polygon fill="#222222" stroke="#222222" stroke-width="2" stroke-miterlimit="10" points="1565.567,341.4 1580.79,339.566 
	1580.79,215.548 1565.567,213.715 1565.567,201.159 1597.447,201.159 1597.447,339.566 1612.669,341.4 1612.669,353.816 
	1565.567,353.816 "/>
<path fill="#222222" stroke="#222222" stroke-width="2" stroke-miterlimit="10" d="M1752.951,353.816
	c-1.12-5.172-1.917-9.64-2.381-13.402c-0.471-3.763-0.7-7.572-0.7-11.43c-5.599,7.995-13.064,14.628-22.396,19.894
	c-9.331,5.267-19.83,7.9-31.493,7.9c-14.837,0-26.312-3.855-34.43-11.568c-8.119-7.712-12.179-18.153-12.179-31.321
	c0-14.11,6.021-25.303,18.058-33.579c12.034-8.276,28.365-12.416,48.989-12.416h33.451v-20.175c0-10.913-3.478-19.473-10.429-25.681
	s-16.68-9.312-29.185-9.312c-8.396,0-16.071,1.154-23.022,3.457c-6.955,2.307-12.761,5.432-17.428,9.382l-1.397,12.866h-13.858
	l0.141-21.755c7-5.453,15.371-9.876,25.125-13.263c9.75-3.385,20.131-5.079,31.142-5.079c16.701,0,30.141,4.282,40.31,12.842
	c10.173,8.559,15.26,20.834,15.26,36.821v75.061c0,3.105,0.07,6.092,0.207,8.959c0.141,2.871,0.445,5.668,0.912,8.396l9.42,0.986
	v12.416H1752.951z M1697.801,341.823c12.13,0,22.814-2.821,32.054-8.466c9.238-5.643,15.907-12.931,20.016-21.867v-30.617h-33.733
	c-15.211,0-27.363,3.176-36.461,9.525c-9.098,6.348-13.647,14.367-13.647,24.054c0,8.184,2.821,14.792,8.468,19.823
	C1680.143,339.308,1687.909,341.823,1697.801,341.823z"/>
<path fill="#222222" stroke="#222222" stroke-width="2" stroke-miterlimit="10" d="M1812.69,146.274v-12.557h31.879v205.85
	l15.223,1.834v12.416h-47.102V341.4l15.223-1.834V148.108L1812.69,146.274z"/>
<path fill="#222222" stroke="#222222" stroke-width="2" stroke-miterlimit="10" d="M1259.851,232.389
	c0,50.545-73.183,52.339-99.268,50.247c0.953,28.112,14.314,58.321,52.496,58.321c23.227,0,36.591-10.768,41.044-14.058
	l7.952,10.468c-9.861,7.776-26.403,16.449-48.678,16.449c-47.724,0-68.407-31.701-68.407-76.266
	c0-44.265,26.096-79.259,71.273-79.259C1244.896,198.292,1259.851,212.947,1259.851,232.389z M1215.626,210.256
	c-39.453,0-53.774,35.591-54.724,60.116c17.18,1.496,82.725,0.299,82.725-34.693
	C1243.627,219.528,1232.168,210.256,1215.626,210.256z"/>
<path fill="#222222" stroke="#222222" stroke-width="2" stroke-miterlimit="10" d="M1407.669,232.389
	c0,50.545-73.183,52.339-99.271,50.247c0.956,28.112,14.313,58.321,52.491,58.321c23.23,0,36.592-10.768,41.052-14.058l7.952,10.468
	c-9.865,7.776-26.411,16.449-48.681,16.449c-47.725,0-68.408-31.701-68.408-76.266c0-44.265,26.089-79.259,71.27-79.259
	C1392.706,198.292,1407.669,212.947,1407.669,232.389z M1363.438,210.256c-39.454,0-53.768,35.591-54.725,60.116
	c17.184,1.496,82.722,0.299,82.722-34.693C1391.435,219.528,1379.986,210.256,1363.438,210.256z"/>
<rect x="1574.947" y="135.142" fill="#222222" stroke="#222222" stroke-width="2" stroke-miterlimit="10" width="20.854" height="20.852"/>
<rect y="34.628" fill="#222222" width="374.351" height="431.414"/>
<rect x="17.043" y="50.452" fill="#FFFFFF" width="340.266" height="399.765"/>
<rect x="64.061" y="97.549" fill="#222222" width="250.027" height="15.186"/>
<rect x="64.061" y="139.033" fill="#222222" width="250.025" height="15.186"/>
<rect x="64.061" y="222" fill="#222222" width="250.025" height="15.186"/>
<rect x="64.061" y="304.97" fill="#222222" width="108.66" height="15.186"/>
<rect x="64.061" y="346.451" fill="#222222" width="250.025" height="15.185"/>
<rect x="64.061" y="387.936" fill="#222222" width="250.027" height="15.186"/>
<rect x="64.061" y="180.519" fill="#222222" width="106.941" height="15.186"/>
<rect x="64.061" y="263.484" fill="#222222" width="250.025" height="15.186"/>
</svg>
