<svg xmlns="http://www.w3.org/2000/svg" width="129" height="30" viewBox="0 0 431 100">
  <g fill="none">
    <polygon fill="#4B69E2" stroke="#4B69E2" points="150.318 50.889 128.828 50.889 128.828 70.57 151.068 70.57 151.358 67.412 154.785 67.412 154.785 73.861 121.466 73.861 121.466 70.993 124.981 70.57 124.981 29.742 121.466 29.318 121.466 26.418 124.981 26.418 154.624 26.418 154.624 32.461 151.197 32.461 150.906 29.742 128.828 29.742 128.828 47.565 150.318 47.565"/>
    <path fill="#4B69E2" stroke="#4B69E2" d="M163.035566 41.5046189L163.035566 38.6048499 169.53903 38.6048499 169.895381 44.4369515C171.015242 42.3734411 172.513626 40.7769053 174.38776 39.6471132 176.262818 38.5177829 178.493072 37.9526559 181.079908 37.9526559 183.751039 37.9526559 185.981755 38.6103926 187.771132 39.9242494 189.559584 41.2387991 190.841339 43.2427252 191.618014 45.9360277 192.673441 43.4600462 194.176212 41.5103926 196.126559 40.0872979 198.076905 38.6648961 200.452887 37.9528868 203.254273 37.9528868 206.982217 37.9528868 209.864896 39.2025404 211.901848 41.7002309 213.937644 44.1983834 214.955889 48.0655889 214.955889 53.3004619L214.955889 70.5374134 218.033025 70.9937644 218.033025 73.8612009 207.52933 73.8612009 207.52933 70.9930716 211.045035 70.5367206 211.045035 53.234642C211.045035 48.8905312 210.28545 45.821709 208.76582 44.0297921 207.246882 42.2374134 205.129561 41.3413395 202.41455 41.3413395 199.396536 41.3413395 197.075289 42.308545 195.448499 44.2413395 193.820785 46.1750577 192.814088 48.6401848 192.425173 51.6378753 192.425173 51.8122402 192.430254 51.9750577 192.44157 52.1267898 192.452656 52.2787529 192.457737 52.4743649 192.457737 52.712933L192.457737 70.5692841 195.97321 70.9928406 195.97321 73.8602771 185.063741 73.8602771 185.063741 70.9930716 188.579215 70.569515 188.579215 53.234642C188.579215 48.9773672 187.807852 45.9307159 186.267436 44.0949192 184.726328 42.2591224 182.609007 41.3413395 179.915473 41.3413395 177.156813 41.3413395 174.975058 42.0420323 173.369746 43.4429561 171.764434 44.8438799 170.638568 46.7290993 169.992148 49.0965358L169.992148 70.569515 173.507621 70.9930716 173.507621 73.8605081 163.035566 73.8605081 163.035566 70.9930716 166.112702 70.569515 166.112702 41.9279446 163.035566 41.5046189zM224.413626 41.5046189L224.413626 38.6048499 231.161432 38.6048499 231.646882 44.0787529C232.830947 42.1235566 234.345727 40.6140878 236.188222 39.5491917 238.030716 38.4852194 240.190762 37.9524249 242.669515 37.9524249 246.871594 37.9524249 250.157737 39.6418014 252.528406 43.0193995 254.898383 46.3974596 256.084065 50.9 256.084065 56.5251732L256.084065 57.2096998C256.084065 62.4882217 254.898152 66.6972286 252.528406 69.8360277 250.157506 72.9757506 246.893072 74.5443418 242.733487 74.5443418 240.277136 74.5443418 238.127252 74.0722864 236.284758 73.1270208 234.442032 72.1819861 232.939723 70.8413395 231.775982 69.1027714L231.775982 84.9681293 235.291686 85.3916859 235.291686 88.2919169 224.413626 88.2919169 224.413626 85.3916859 227.92933 84.9681293 227.92933 41.9279446 224.413626 41.5046189zM252.20485 56.5256351C252.20485 52.0512702 251.321247 48.4016166 249.554965 45.5775982 247.786836 42.7538106 245.200924 41.3415704 241.795843 41.3415704 239.188915 41.3415704 237.071594 41.9660508 235.444804 43.2152425 233.81709 44.4644342 232.594457 46.0879908 231.775751 48.0866051L231.775751 65.030485C232.65843 66.9639723 233.936028 68.4840647 235.605543 69.5921478 237.275982 70.7 239.36097 71.2538106 241.86097 71.2538106 245.243649 71.2538106 247.814088 69.9720554 249.570208 67.4090069 251.327021 64.8461894 252.204619 61.4464203 252.204619 57.2101617L252.204619 56.5256351 252.20485 56.5256351zM341.56582 38.6048499L342.05127 44.469746 342.05127 44.8935335C343.042032 42.7212471 344.394688 41.0212471 346.107852 39.7937644 347.821247 38.5667436 349.851963 37.9524249 352.201617 37.9524249 352.696536 37.9524249 353.175982 37.9905312 353.639954 38.0667436 354.103233 38.1429561 354.484988 38.2242494 354.787298 38.3113164L354.270208 41.9605081 351.393533 41.765127C348.957506 41.765127 346.959353 42.4547344 345.396767 43.8341801 343.833949 45.2138568 342.7194 47.108776 342.051501 49.5200924L342.051501 70.569515 345.567206 70.9930716 345.567206 73.8605081 334.689145 73.8605081 334.689145 70.9930716 338.20485 70.569515 338.20485 41.9279446 334.689145 41.5046189 334.689145 38.6048499 338.20485 38.6048499 341.56582 38.6048499z"/>
    <polygon fill="#4B69E2" stroke="#4B69E2" points="361.731 70.993 365.247 70.57 365.247 41.928 361.731 41.505 361.731 38.605 369.094 38.605 369.094 70.57 372.609 70.993 372.609 73.861 361.731 73.861"/>
    <path fill="#4B69E2" stroke="#4B69E2" d="M405.006697,73.8605081 C404.748037,72.6660508 404.563972,71.6341801 404.456813,70.765358 C404.348037,69.8963048 404.29515,69.0166282 404.29515,68.1256351 C403.002079,69.9720554 401.27806,71.5039261 399.122864,72.7200924 C396.967898,73.9364896 394.543187,74.5445727 391.849654,74.5445727 C388.423095,74.5445727 385.772979,73.6542725 383.898152,71.8729792 C382.023095,70.0919169 381.08545,67.6806005 381.08545,64.6394919 C381.08545,61.3808314 382.475982,58.795843 385.255889,56.8845266 C388.035104,54.9732102 391.806697,54.0170901 396.569746,54.0170901 L404.29515,54.0170901 L404.29515,49.3577367 C404.29515,46.8374134 403.491917,44.8605081 401.886605,43.4267898 C400.281293,41.9930716 398.034411,41.2762125 395.14642,41.2762125 C393.20739,41.2762125 391.434873,41.5427252 389.829561,42.0745958 C388.223326,42.6073903 386.882448,43.3290993 385.804619,44.2413395 L385.481986,47.2127021 L382.281524,47.2127021 L382.314088,42.1884527 C383.930716,40.9290993 385.863972,39.9076212 388.116628,39.1254042 C390.36836,38.343649 392.76582,37.9524249 395.308776,37.9524249 C399.16582,37.9524249 402.269746,38.9413395 404.618245,40.9182448 C406.967667,42.8949192 408.142494,45.7297921 408.142494,49.42194 L408.142494,66.7570439 C408.142494,67.4741339 408.158661,68.1639723 408.1903,68.826097 C408.222864,69.4891455 408.293072,70.1351039 408.400924,70.765127 L410.576443,70.9928406 L410.576443,73.8602771 L405.006697,73.8602771 L405.006697,73.8605081 Z M392.269746,71.0907621 C395.071132,71.0907621 397.538568,70.439261 399.672517,69.1355658 C401.806005,67.8323326 403.346189,66.1491917 404.29515,64.0854503 L404.29515,57.0145497 L396.504619,57.0145497 C392.991686,57.0145497 390.185219,57.748037 388.084065,59.2143187 C385.98291,60.6803695 384.932333,62.5323326 384.932333,64.769515 C384.932333,66.6595843 385.583834,68.1856813 386.887991,69.3475751 C388.191686,70.5099307 389.98545,71.0907621 392.269746,71.0907621 Z"/>
    <polygon fill="#4B69E2" stroke="#4B69E2" points="418.803 25.929 418.803 23.029 426.166 23.029 426.166 70.57 429.681 70.993 429.681 73.861 418.803 73.861 418.803 70.993 422.319 70.57 422.319 26.353"/>
    <path fill="#4B69E2" stroke="#4B69E2" d="M291.126559 45.817321C291.126559 57.4905312 274.225173 57.9048499 268.200924 57.421709 268.421016 63.9140878 271.506697 70.8907621 280.324711 70.8907621 285.688915 70.8907621 288.775289 68.4039261 289.803695 67.6441109L291.640185 70.0616628C289.362818 71.8575058 285.542494 73.8605081 280.398152 73.8605081 269.376443 73.8605081 264.599769 66.539261 264.599769 56.2471132 264.599769 46.0242494 270.626559 37.9424942 281.060046 37.9424942 287.672748 37.9427252 291.126559 41.3272517 291.126559 45.817321zM280.913164 40.7057737C271.801617 40.7057737 268.494226 48.9254042 268.274827 54.5893764 272.242494 54.934873 287.379908 54.6584296 287.379908 46.5771363 287.379677 42.8471132 284.733487 40.7057737 280.913164 40.7057737zM325.264665 45.817321C325.264665 57.4905312 308.363279 57.9048499 302.338337 57.421709 302.559122 63.9140878 305.64388 70.8907621 314.46097 70.8907621 319.825866 70.8907621 322.911778 68.4039261 323.941801 67.6441109L325.778291 70.0616628C323.5 71.8575058 319.678753 73.8605081 314.535566 73.8605081 303.513626 73.8605081 298.736952 66.539261 298.736952 56.2471132 298.736952 46.0242494 304.762125 37.9424942 315.196536 37.9424942 321.809238 37.9427252 325.264665 41.3272517 325.264665 45.817321zM315.049654 40.7057737C305.937875 40.7057737 302.632102 48.9254042 302.411085 54.5893764 306.379677 54.934873 321.515473 54.6584296 321.515473 46.5771363 321.515473 42.8471132 318.871594 40.7057737 315.049654 40.7057737z"/>
    <rect width="4.816" height="4.816" x="363.897" y="23.358" fill="#4B69E2" stroke="#4B69E2"/>
    <rect width="86.455" height="99.634" x=".168" y=".145" fill="#4B69E2"/>
    <rect width="78.583" height="92.324" x="4.104" y="3.8" fill="#FFFFFF"/>
    <rect width="57.743" height="3.507" x="14.963" y="14.676" fill="#4B69E2"/>
    <rect width="57.742" height="3.507" x="14.963" y="24.257" fill="#4B69E2"/>
    <rect width="57.742" height="3.507" x="14.963" y="43.418" fill="#4B69E2"/>
    <rect width="25.095" height="3.507" x="14.963" y="62.58" fill="#4B69E2"/>
    <rect width="57.742" height="3.507" x="14.963" y="72.16" fill="#4B69E2"/>
    <rect width="57.743" height="3.507" x="14.963" y="81.74" fill="#4B69E2"/>
    <rect width="24.698" height="3.507" x="14.963" y="33.838" fill="#4B69E2"/>
    <rect width="57.742" height="3.507" x="14.963" y="52.999" fill="#4B69E2"/>
    <rect width="8.747" height="4.503" x="402.786" y="74.083" fill="#FFFFFF"/>
  </g>
</svg>
